<?xml version="1.0" encoding="UTF-8"?>
<svg version="1.1" xmlns="http://www.w3.org/2000/svg" width="1024" height="1024">
<path d="M0 0 C102.155625 -0.061875 102.155625 -0.061875 206.375 -0.125 C238.59713135 -0.15231201 238.59713135 -0.15231201 271.47021484 -0.18017578 C297.7590332 -0.18920898 297.7590332 -0.18920898 310.07705688 -0.19088745 C318.65592555 -0.19274612 327.23476792 -0.20005526 335.81362915 -0.21115112 C345.7260938 -0.22395273 355.63853339 -0.22965543 365.55100635 -0.2268899 C370.61310272 -0.22569381 375.67514319 -0.22748477 380.73722911 -0.23843026 C437.85016766 -0.35557243 495.43269771 5.04310829 540 45 C540.51224121 45.45342773 541.02448242 45.90685547 541.55224609 46.37402344 C559.79741672 62.56911411 574.89403988 81.21937918 586 103 C586.34224609 103.65613281 586.68449219 104.31226563 587.03710938 104.98828125 C609.92591656 149.21993491 613.16486811 203.81855865 598.26879883 251.0847168 C592.40253654 268.95059924 584.73208772 284.5704053 574 300 C573.6066748 300.56589844 573.21334961 301.13179688 572.80810547 301.71484375 C563.14706535 315.44081999 551.1353515 328.54533248 538 339 C537.34 339 536.68 339 536 339 C536 339.66 536 340.32 536 341 C536.58990723 341.12963135 537.17981445 341.2592627 537.78759766 341.39282227 C541.25735346 342.34507151 544.26278281 344.17543312 547.375 345.9375 C548.08035889 346.33646484 548.78571777 346.73542969 549.51245117 347.14648438 C565.5144392 356.36936689 579.66031521 368.29497863 593 381 C593.59893066 381.57024902 594.19786133 382.14049805 594.81494141 382.72802734 C603.70009927 391.25090006 611.76454719 400.03479597 619 410 C619.4532666 410.61955566 619.9065332 411.23911133 620.37353516 411.87744141 C658.36503144 464.22039483 667.87963485 525.89155211 657.875 588.875 C648.2982332 645.50094509 618.35152551 698.56888179 571.15454102 732.1887207 C522.50145544 765.87084323 465.83379485 776.24112263 407.67700195 776.11352539 C405.83185833 776.11324236 403.9867146 776.11340351 402.14157104 776.1139679 C397.19862877 776.11425134 392.25571144 776.10842878 387.3127749 776.10139394 C382.12251431 776.09508409 376.93225297 776.09455063 371.74198914 776.09336853 C361.94301831 776.09027749 352.14405882 776.08209453 342.34509295 776.07201904 C331.17678899 776.06078822 320.00848444 776.05533 308.84017622 776.05032361 C285.89344456 776.03990972 262.94672292 776.02235402 240 776 C240 775.34 240 774.68 240 774 C241.30664063 772.78588867 241.30664063 772.78588867 243.15625 771.41796875 C243.84106445 770.90468018 244.52587891 770.3913916 245.23144531 769.86254883 C246.35437988 769.03339966 246.35437988 769.03339966 247.5 768.1875 C253.51433985 763.67421701 259.43864272 759.08453756 265.25 754.3125 C271.01997628 749.58528205 276.8638147 744.98248915 282.79296875 740.45703125 C286.19854123 737.8559742 289.57039565 735.21308007 292.9375 732.5625 C293.51902832 732.10472168 294.10055664 731.64694336 294.69970703 731.17529297 C295.8779014 730.24740379 297.05596099 729.31934346 298.23388672 728.39111328 C301.15371048 726.09125763 304.07701893 723.79584055 307 721.5 C308.16668361 720.5833549 309.33335027 719.66668823 310.5 718.75 C322.16666667 709.58333333 333.83333333 700.41666667 345.5 691.25 C346.07717773 690.7964917 346.65435547 690.3429834 347.24902344 689.87573242 C348.41890016 688.95656687 349.58882223 688.03745905 350.75878906 687.1184082 C353.62671157 684.86543906 356.4939099 682.61156277 359.359375 680.35546875 C365.88985917 675.21573584 372.43752954 670.0988432 379 665 C388.37276088 657.71679014 397.7398056 650.42619486 407 643 C421.43709684 631.42219831 436.0680868 620.07758122 450.75 608.8125 C452.83410805 607.20933996 454.91742786 605.60515474 457 604 C457.57733887 603.5555957 458.15467773 603.11119141 458.74951172 602.65332031 C480.43134445 585.92817107 498.53788965 567.56215022 505 540 C505.22300781 539.08734375 505.44601562 538.1746875 505.67578125 537.234375 C510.41612837 514.1453373 506.31948625 489.65054975 493.75 469.75 C480.50125516 449.75578159 461.47086313 437.36525611 438.5 431.125 C437.80237549 430.93381592 437.10475098 430.74263184 436.38598633 430.5456543 C421.13679699 426.76127172 405.4810818 426.69668325 389.87475586 426.68115234 C387.7047845 426.67183246 385.53481665 426.6616608 383.36485291 426.65071106 C377.52721023 426.62362909 371.68959138 426.608327 365.85190272 426.59528303 C359.73136488 426.57955613 353.61087503 426.55279685 347.4903717 426.5272522 C335.92410113 426.48063255 324.35782135 426.44380751 312.7915054 426.41057932 C299.61358113 426.37223851 286.43570526 426.32286001 273.25782192 426.27259517 C246.17191724 426.16952564 219.08598142 426.08018469 192 426 C191.85847692 419.05577948 191.71870073 412.11152526 191.58004951 405.16724682 C191.5328421 402.81267436 191.48525778 400.45810941 191.4372654 398.10355282 C191.0864422 380.87464161 190.83941013 363.65397998 190.86962891 346.42114258 C190.87673753 341.64511809 190.86654775 336.86915523 190.85620117 332.09313965 C190.87459973 320.07499746 191.10876936 308.07942388 191.50830078 296.0690918 C191.55603128 294.59530898 191.60360378 293.12152105 191.65101624 291.64772797 C191.7655332 288.09842469 191.88215161 284.54919442 192 281 C192.94439029 280.99761165 193.88878057 280.99522329 194.86178875 280.99276257 C217.92701829 280.93375598 240.99214514 280.85774424 264.05726147 280.76428509 C275.21174863 280.71947407 286.36620492 280.6800262 297.52075195 280.65356445 C307.25222017 280.63046465 316.98358945 280.59693488 326.71497899 280.55129844 C331.85934424 280.52752652 337.00361247 280.50869344 342.14803123 280.50238609 C347.00802379 280.49626175 351.86776863 280.47600325 356.72766876 280.44572449 C358.49425588 280.43706026 360.26087553 280.43319695 362.02748299 280.43499184 C388.32677976 280.45324586 416.16634506 277.10632583 436.046875 258.109375 C449.11814218 243.99240645 454.84202266 224.92250453 454.21875 205.88671875 C452.88299453 188.25951713 447.32235419 173.29603909 434.34375 160.94140625 C417.55038335 147.03090088 395.35507231 141.86443088 373.93299866 141.84178162 C372.93471446 141.83684364 371.93643026 141.83190566 370.90789503 141.82681805 C367.57149219 141.81149163 364.23510852 141.80309559 360.89868164 141.79467773 C358.5035892 141.7850954 356.10849843 141.77508511 353.71340942 141.76467896 C347.89034981 141.74046599 342.06728741 141.72070955 336.24420489 141.70292621 C329.46629791 141.68198583 322.68841578 141.65553804 315.91052978 141.62875474 C303.82407324 141.58113985 291.73760523 141.53785921 279.65112305 141.49731445 C267.91283274 141.45792842 256.17455259 141.41649479 244.4362793 141.37231445 C243.71227844 141.36959018 242.98827757 141.36686591 242.24233729 141.36405908 C238.61010229 141.35037909 234.97786745 141.33665892 231.34563267 141.32291877 C201.23044295 141.20904991 171.11523141 141.10229182 141 141 C141.00249569 141.92218305 141.00499138 142.8443661 141.0075627 143.79449409 C141.15522477 198.38978325 141.29761404 252.98508408 141.4332476 307.58040452 C141.44951957 314.12839152 141.46583517 320.67637841 141.48217773 327.22436523 C141.48705712 329.17983383 141.48705712 329.17983383 141.49203508 331.17480684 C141.54488492 352.3132141 141.60127343 373.45161053 141.6589582 394.59000509 C141.71802218 416.26250909 141.77331004 437.93502033 141.82505554 459.60754305 C141.85713316 472.9922714 141.89219434 486.37698522 141.93101191 499.76169575 C141.95731004 508.92663274 141.97995698 518.0915741 141.99967117 527.2565276 C142.01117328 532.55273449 142.02434401 537.84892409 142.04183006 543.1451149 C142.05777508 547.9852541 142.06917832 552.82538107 142.07683109 557.66554029 C142.08043892 559.42463572 142.08577334 561.18372856 142.09292836 562.94281315 C142.10234659 565.31781957 142.10570857 567.69275605 142.10743046 570.06777859 C142.11166182 570.76464619 142.11589318 571.46151378 142.12025276 572.17949858 C142.1141458 576.8858542 142.1141458 576.8858542 141 578 C94.47 578 47.94 578 0 578 C0 387.26 0 196.52 0 0 Z " fill="#3479F2" transform="translate(314,112)"/>
<path d="M0 0 C0.9906118 -0.00744736 0.9906118 -0.00744736 2.00123596 -0.01504517 C4.20111115 -0.02972395 6.4009138 -0.0364846 8.60083008 -0.04199219 C10.13527935 -0.04774698 11.66972861 -0.05350467 13.20417786 -0.05926514 C16.4349501 -0.06979674 19.66569736 -0.07562261 22.89648438 -0.07910156 C26.99921631 -0.08453578 31.10160778 -0.10844363 35.20423412 -0.13707352 C38.38309108 -0.15589467 41.56187005 -0.16091611 44.74077797 -0.16243744 C46.2503676 -0.1654301 47.75995702 -0.17334128 49.2694912 -0.18662262 C61.99380111 -0.29041321 74.45746675 0.6815207 85.87036133 6.84863281 C86.5376123 7.19821045 87.20486328 7.54778809 87.89233398 7.90795898 C106.71651967 18.01321679 121.21926018 34.35200093 127.5461548 54.97512066 C130.29078767 66.29231356 130.09253242 77.44708744 130.04362488 89.02853394 C130.0449346 91.34225639 130.0475641 93.65597841 130.05139238 95.96969807 C130.05807639 102.30020291 130.04613331 108.63055446 130.03105819 114.96103978 C130.01792361 121.09494867 130.02194256 127.22885941 130.02410372 133.36277808 C130.0280356 145.90209872 130.01805861 158.44137176 130.0000515 170.98067856 C129.98227767 183.38944612 129.97074907 195.79819383 129.96749306 208.20697403 C129.96728684 208.97959318 129.96708062 209.75221233 129.96686815 210.54824418 C129.9658531 214.4722638 129.96494897 218.39628344 129.96408752 222.3203031 C129.95779256 250.08708403 129.93759801 277.8538391 129.90917969 305.62060547 C129.88161004 332.58935411 129.86041796 359.5580956 129.84765625 386.52685547 C129.84684432 388.22384004 129.84603221 389.92082461 129.84521991 391.61780918 C129.83865324 405.40734978 129.83252564 419.19689058 129.82650446 432.98643143 C129.79836276 496.71135641 129.7381461 560.43621384 129.68286133 624.16113281 C275.21286133 624.16113281 420.74286133 624.16113281 570.68286133 624.16113281 C567.05777645 627.78621769 563.78606735 630.73904303 559.74536133 633.78613281 C558.58731512 634.66569095 557.4297803 635.54592271 556.27270508 636.42675781 C555.6795752 636.87728516 555.08644531 637.3278125 554.4753418 637.79199219 C551.56592321 640.01427759 548.68542708 642.27283311 545.80786133 644.53613281 C544.94294067 645.21579102 544.94294067 645.21579102 544.06054688 645.90917969 C540.34666215 648.83393442 536.6550739 651.78538441 532.97119141 654.74780273 C526.9595971 659.58116445 520.88527203 664.29565516 514.69458008 668.89941406 C506.14860619 675.31720768 497.83182278 682.02332532 489.55786133 688.78613281 C484.02244515 693.3086351 478.41203391 697.67250231 472.66723633 701.92675781 C467.52672848 705.77541029 462.50303256 709.77252671 457.46508789 713.75390625 C454.54206271 716.0618949 451.61219071 718.36115474 448.68286133 720.66113281 C445.22852104 723.37443509 441.77470074 726.08838644 438.32348633 728.80566406 C431.02108357 734.55292549 423.69427685 740.26798007 416.35571289 745.96899414 C410.39701442 750.59983554 410.39701442 750.59983554 404.46518195 755.26499283 C403.34273284 756.1442376 402.21250996 757.01373268 401.07166326 757.86897075 C397.88587949 760.28419002 395.07489376 762.75177683 392.37609291 765.70486641 C382.31798796 775.97533577 372.2526626 777.650888 358.50937298 777.88555315 C353.35281645 777.93550159 348.20048176 777.86989935 343.0446291 777.78605151 C338.33326204 777.72505766 333.62212801 777.74608925 328.91047668 777.75668335 C320.76608802 777.76399126 312.62328087 777.72042107 304.47929001 777.64135361 C292.70503059 777.52711599 280.93152855 777.49106739 269.15677507 777.47352172 C250.0491526 777.44295189 230.94237134 777.34997809 211.83520508 777.21728516 C193.28479188 777.0885934 174.73460793 776.98958707 156.18383789 776.93017578 C155.03857362 776.92649765 153.89330934 776.92281952 152.71334009 776.91902994 C146.96734551 776.90075817 141.22134932 776.88306655 135.47535205 776.86566329 C87.87727409 776.72075066 40.28010893 776.47436234 -7.31713867 776.16113281 C-7.33426907 702.28913936 -7.35016978 628.41714566 -7.35948181 554.54515076 C-7.35961987 553.45274222 -7.35975793 552.36033368 -7.35990017 551.23482185 C-7.36289271 527.49686082 -7.36566294 503.75889976 -7.368204 480.02093867 C-7.3694514 468.38073971 -7.37074794 456.74054075 -7.37207031 445.1003418 C-7.37220107 443.94196947 -7.37233183 442.78359714 -7.37246655 441.59012262 C-7.37673192 404.00820928 -7.38424622 366.42629745 -7.39343589 328.84438502 C-7.40285822 290.24111345 -7.40902173 251.6378427 -7.41105366 213.03457 C-7.41134184 207.58873512 -7.41166748 202.14290023 -7.41201591 196.69706535 C-7.41208334 195.62519115 -7.41215076 194.55331695 -7.41222023 193.44896172 C-7.41340438 176.1579811 -7.41804896 158.86700305 -7.42397071 141.57602348 C-7.42984319 124.21503046 -7.43211037 106.85403998 -7.43064005 89.49304599 C-7.42987642 79.16417429 -7.43193431 68.83531188 -7.43793621 58.50644185 C-7.44166617 51.62023035 -7.44181649 44.73402498 -7.43897049 37.84781306 C-7.43745033 33.91553731 -7.43756754 29.98327922 -7.44202185 26.05100531 C-7.44676742 21.82987112 -7.44390548 17.60877805 -7.4401865 13.38764286 C-7.44281351 12.14690216 -7.44544053 10.90616145 -7.44814715 9.62782255 C-7.44589985 8.51467692 -7.44365256 7.4015313 -7.44133717 6.25465399 C-7.44149315 5.2877301 -7.44164913 4.32080621 -7.44180984 3.3245816 C-7.18045995 -1.21068596 -3.82809478 0.02179831 0 0 Z " fill="#3479F2" transform="translate(129.317138671875,111.8388671875)"/>
</svg>
