<?xml version="1.0" encoding="UTF-8"?>
<svg version="1.1" xmlns="http://www.w3.org/2000/svg" width="3000" height="1024">
<path d="M0 0 C102.155625 -0.061875 102.155625 -0.061875 206.375 -0.125 C238.59713135 -0.15231201 238.59713135 -0.15231201 271.47021484 -0.18017578 C297.7590332 -0.18920898 297.7590332 -0.18920898 310.07705688 -0.19088745 C318.65592555 -0.19274612 327.23476792 -0.20005526 335.81362915 -0.21115112 C345.7260938 -0.22395273 355.63853339 -0.22965543 365.55100635 -0.2268899 C370.61310272 -0.22569381 375.67514319 -0.22748477 380.73722911 -0.23843026 C437.85016766 -0.35557243 495.43269771 5.04310829 540 45 C540.51224121 45.45342773 541.02448242 45.90685547 541.55224609 46.37402344 C559.79741672 62.56911411 574.89403988 81.21937918 586 103 C586.34224609 103.65613281 586.68449219 104.31226563 587.03710938 104.98828125 C609.92591656 149.21993491 613.16486811 203.81855865 598.26879883 251.0847168 C592.40253654 268.95059924 584.73208772 284.5704053 574 300 C573.6066748 300.56589844 573.21334961 301.13179688 572.80810547 301.71484375 C563.14706535 315.44081999 551.1353515 328.54533248 538 339 C537.34 339 536.68 339 536 339 C536 339.66 536 340.32 536 341 C536.58990723 341.12963135 537.17981445 341.2592627 537.78759766 341.39282227 C541.25735346 342.34507151 544.26278281 344.17543312 547.375 345.9375 C548.08035889 346.33646484 548.78571777 346.73542969 549.51245117 347.14648438 C565.5144392 356.36936689 579.66031521 368.29497863 593 381 C593.59893066 381.57024902 594.19786133 382.14049805 594.81494141 382.72802734 C603.70009927 391.25090006 611.76454719 400.03479597 619 410 C619.4532666 410.61955566 619.9065332 411.23911133 620.37353516 411.87744141 C658.36503144 464.22039483 667.87963485 525.89155211 657.875 588.875 C648.2982332 645.50094509 618.35152551 698.56888179 571.15454102 732.1887207 C522.50145544 765.87084323 465.83379485 776.24112263 407.67700195 776.11352539 C405.83185833 776.11324236 403.9867146 776.11340351 402.14157104 776.1139679 C397.19862877 776.11425134 392.25571144 776.10842878 387.3127749 776.10139394 C382.12251431 776.09508409 376.93225297 776.09455063 371.74198914 776.09336853 C361.94301831 776.09027749 352.14405882 776.08209453 342.34509295 776.07201904 C331.17678899 776.06078822 320.00848444 776.05533 308.84017622 776.05032361 C285.89344456 776.03990972 262.94672292 776.02235402 240 776 C240 775.34 240 774.68 240 774 C241.30664063 772.78588867 241.30664063 772.78588867 243.15625 771.41796875 C243.84106445 770.90468018 244.52587891 770.3913916 245.23144531 769.86254883 C246.35437988 769.03339966 246.35437988 769.03339966 247.5 768.1875 C253.51433985 763.67421701 259.43864272 759.08453756 265.25 754.3125 C271.01997628 749.58528205 276.8638147 744.98248915 282.79296875 740.45703125 C286.19854123 737.8559742 289.57039565 735.21308007 292.9375 732.5625 C293.51902832 732.10472168 294.10055664 731.64694336 294.69970703 731.17529297 C295.8779014 730.24740379 297.05596099 729.31934346 298.23388672 728.39111328 C301.15371048 726.09125763 304.07701893 723.79584055 307 721.5 C308.16668361 720.5833549 309.33335027 719.66668823 310.5 718.75 C322.16666667 709.58333333 333.83333333 700.41666667 345.5 691.25 C346.07717773 690.7964917 346.65435547 690.3429834 347.24902344 689.87573242 C348.41890016 688.95656687 349.58882223 688.03745905 350.75878906 687.1184082 C353.62671157 684.86543906 356.4939099 682.61156277 359.359375 680.35546875 C365.88985917 675.21573584 372.43752954 670.0988432 379 665 C388.37276088 657.71679014 397.7398056 650.42619486 407 643 C421.43709684 631.42219831 436.0680868 620.07758122 450.75 608.8125 C452.83410805 607.20933996 454.91742786 605.60515474 457 604 C457.57733887 603.5555957 458.15467773 603.11119141 458.74951172 602.65332031 C480.43134445 585.92817107 498.53788965 567.56215022 505 540 C505.22300781 539.08734375 505.44601562 538.1746875 505.67578125 537.234375 C510.41612837 514.1453373 506.31948625 489.65054975 493.75 469.75 C480.50125516 449.75578159 461.47086313 437.36525611 438.5 431.125 C437.80237549 430.93381592 437.10475098 430.74263184 436.38598633 430.5456543 C421.13679699 426.76127172 405.4810818 426.69668325 389.87475586 426.68115234 C387.7047845 426.67183246 385.53481665 426.6616608 383.36485291 426.65071106 C377.52721023 426.62362909 371.68959138 426.608327 365.85190272 426.59528303 C359.73136488 426.57955613 353.61087503 426.55279685 347.4903717 426.5272522 C335.92410113 426.48063255 324.35782135 426.44380751 312.7915054 426.41057932 C299.61358113 426.37223851 286.43570526 426.32286001 273.25782192 426.27259517 C246.17191724 426.16952564 219.08598142 426.08018469 192 426 C191.85847692 419.05577948 191.71870073 412.11152526 191.58004951 405.16724682 C191.5328421 402.81267436 191.48525778 400.45810941 191.4372654 398.10355282 C191.0864422 380.87464161 190.83941013 363.65397998 190.86962891 346.42114258 C190.87673753 341.64511809 190.86654775 336.86915523 190.85620117 332.09313965 C190.87459973 320.07499746 191.10876936 308.07942388 191.50830078 296.0690918 C191.55603128 294.59530898 191.60360378 293.12152105 191.65101624 291.64772797 C191.7655332 288.09842469 191.88215161 284.54919442 192 281 C192.94439029 280.99761165 193.88878057 280.99522329 194.86178875 280.99276257 C217.92701829 280.93375598 240.99214514 280.85774424 264.05726147 280.76428509 C275.21174863 280.71947407 286.36620492 280.6800262 297.52075195 280.65356445 C307.25222017 280.63046465 316.98358945 280.59693488 326.71497899 280.55129844 C331.85934424 280.52752652 337.00361247 280.50869344 342.14803123 280.50238609 C347.00802379 280.49626175 351.86776863 280.47600325 356.72766876 280.44572449 C358.49425588 280.43706026 360.26087553 280.43319695 362.02748299 280.43499184 C388.32677976 280.45324586 416.16634506 277.10632583 436.046875 258.109375 C449.11814218 243.99240645 454.84202266 224.92250453 454.21875 205.88671875 C452.88299453 188.25951713 447.32235419 173.29603909 434.34375 160.94140625 C417.55038335 147.03090088 395.35507231 141.86443088 373.93299866 141.84178162 C372.93471446 141.83684364 371.93643026 141.83190566 370.90789503 141.82681805 C367.57149219 141.81149163 364.23510852 141.80309559 360.89868164 141.79467773 C358.5035892 141.7850954 356.10849843 141.77508511 353.71340942 141.76467896 C347.89034981 141.74046599 342.06728741 141.72070955 336.24420489 141.70292621 C329.46629791 141.68198583 322.68841578 141.65553804 315.91052978 141.62875474 C303.82407324 141.58113985 291.73760523 141.53785921 279.65112305 141.49731445 C267.91283274 141.45792842 256.17455259 141.41649479 244.4362793 141.37231445 C243.71227844 141.36959018 242.98827757 141.36686591 242.24233729 141.36405908 C238.61010229 141.35037909 234.97786745 141.33665892 231.34563267 141.32291877 C201.23044295 141.20904991 171.11523141 141.10229182 141 141 C141.00249569 141.92218305 141.00499138 142.8443661 141.0075627 143.79449409 C141.15522477 198.38978325 141.29761404 252.98508408 141.4332476 307.58040452 C141.44951957 314.12839152 141.46583517 320.67637841 141.48217773 327.22436523 C141.48705712 329.17983383 141.48705712 329.17983383 141.49203508 331.17480684 C141.54488492 352.3132141 141.60127343 373.45161053 141.6589582 394.59000509 C141.71802218 416.26250909 141.77331004 437.93502033 141.82505554 459.60754305 C141.85713316 472.9922714 141.89219434 486.37698522 141.93101191 499.76169575 C141.95731004 508.92663274 141.97995698 518.0915741 141.99967117 527.2565276 C142.01117328 532.55273449 142.02434401 537.84892409 142.04183006 543.1451149 C142.05777508 547.9852541 142.06917832 552.82538107 142.07683109 557.66554029 C142.08043892 559.42463572 142.08577334 561.18372856 142.09292836 562.94281315 C142.10234659 565.31781957 142.10570857 567.69275605 142.10743046 570.06777859 C142.11166182 570.76464619 142.11589318 571.46151378 142.12025276 572.17949858 C142.1141458 576.8858542 142.1141458 576.8858542 141 578 C94.47 578 47.94 578 0 578 C0 387.26 0 196.52 0 0 Z " fill="#3479F2" transform="translate(314,112)"/>
<path d="M0 0 C0.9906118 -0.00744736 0.9906118 -0.00744736 2.00123596 -0.01504517 C4.20111115 -0.02972395 6.4009138 -0.0364846 8.60083008 -0.04199219 C10.13527935 -0.04774698 11.66972861 -0.05350467 13.20417786 -0.05926514 C16.4349501 -0.06979674 19.66569736 -0.07562261 22.89648438 -0.07910156 C26.99921631 -0.08453578 31.10160778 -0.10844363 35.20423412 -0.13707352 C38.38309108 -0.15589467 41.56187005 -0.16091611 44.74077797 -0.16243744 C46.2503676 -0.1654301 47.75995702 -0.17334128 49.2694912 -0.18662262 C61.99380111 -0.29041321 74.45746675 0.6815207 85.87036133 6.84863281 C86.5376123 7.19821045 87.20486328 7.54778809 87.89233398 7.90795898 C106.71651967 18.01321679 121.21926018 34.35200093 127.5461548 54.97512066 C130.29078767 66.29231356 130.09253242 77.44708744 130.04362488 89.02853394 C130.0449346 91.34225639 130.0475641 93.65597841 130.05139238 95.96969807 C130.05807639 102.30020291 130.04613331 108.63055446 130.03105819 114.96103978 C130.01792361 121.09494867 130.02194256 127.22885941 130.02410372 133.36277808 C130.0280356 145.90209872 130.01805861 158.44137176 130.0000515 170.98067856 C129.98227767 183.38944612 129.97074907 195.79819383 129.96749306 208.20697403 C129.96728684 208.97959318 129.96708062 209.75221233 129.96686815 210.54824418 C129.9658531 214.4722638 129.96494897 218.39628344 129.96408752 222.3203031 C129.95779256 250.08708403 129.93759801 277.8538391 129.90917969 305.62060547 C129.88161004 332.58935411 129.86041796 359.5580956 129.84765625 386.52685547 C129.84684432 388.22384004 129.84603221 389.92082461 129.84521991 391.61780918 C129.83865324 405.40734978 129.83252564 419.19689058 129.82650446 432.98643143 C129.79836276 496.71135641 129.7381461 560.43621384 129.68286133 624.16113281 C275.21286133 624.16113281 420.74286133 624.16113281 570.68286133 624.16113281 C567.05777645 627.78621769 563.78606735 630.73904303 559.74536133 633.78613281 C558.58731512 634.66569095 557.4297803 635.54592271 556.27270508 636.42675781 C555.6795752 636.87728516 555.08644531 637.3278125 554.4753418 637.79199219 C551.56592321 640.01427759 548.68542708 642.27283311 545.80786133 644.53613281 C544.94294067 645.21579102 544.94294067 645.21579102 544.06054688 645.90917969 C540.34666215 648.83393442 536.6550739 651.78538441 532.97119141 654.74780273 C526.9595971 659.58116445 520.88527203 664.29565516 514.69458008 668.89941406 C506.14860619 675.31720768 497.83182278 682.02332532 489.55786133 688.78613281 C484.02244515 693.3086351 478.41203391 697.67250231 472.66723633 701.92675781 C467.52672848 705.77541029 462.50303256 709.77252671 457.46508789 713.75390625 C454.54206271 716.0618949 451.61219071 718.36115474 448.68286133 720.66113281 C445.22852104 723.37443509 441.77470074 726.08838644 438.32348633 728.80566406 C431.02108357 734.55292549 423.69427685 740.26798007 416.35571289 745.96899414 C410.39701442 750.59983554 410.39701442 750.59983554 404.46518195 755.26499283 C403.34273284 756.1442376 402.21250996 757.01373268 401.07166326 757.86897075 C397.88587949 760.28419002 395.07489376 762.75177683 392.37609291 765.70486641 C382.31798796 775.97533577 372.2526626 777.650888 358.50937298 777.88555315 C353.35281645 777.93550159 348.20048176 777.86989935 343.0446291 777.78605151 C338.33326204 777.72505766 333.62212801 777.74608925 328.91047668 777.75668335 C320.76608802 777.76399126 312.62328087 777.72042107 304.47929001 777.64135361 C292.70503059 777.52711599 280.93152855 777.49106739 269.15677507 777.47352172 C250.0491526 777.44295189 230.94237134 777.34997809 211.83520508 777.21728516 C193.28479188 777.0885934 174.73460793 776.98958707 156.18383789 776.93017578 C155.03857362 776.92649765 153.89330934 776.92281952 152.71334009 776.91902994 C146.96734551 776.90075817 141.22134932 776.88306655 135.47535205 776.86566329 C87.87727409 776.72075066 40.28010893 776.47436234 -7.31713867 776.16113281 C-7.33426907 702.28913936 -7.35016978 628.41714566 -7.35948181 554.54515076 C-7.35961987 553.45274222 -7.35975793 552.36033368 -7.35990017 551.23482185 C-7.36289271 527.49686082 -7.36566294 503.75889976 -7.368204 480.02093867 C-7.3694514 468.38073971 -7.37074794 456.74054075 -7.37207031 445.1003418 C-7.37220107 443.94196947 -7.37233183 442.78359714 -7.37246655 441.59012262 C-7.37673192 404.00820928 -7.38424622 366.42629745 -7.39343589 328.84438502 C-7.40285822 290.24111345 -7.40902173 251.6378427 -7.41105366 213.03457 C-7.41134184 207.58873512 -7.41166748 202.14290023 -7.41201591 196.69706535 C-7.41208334 195.62519115 -7.41215076 194.55331695 -7.41222023 193.44896172 C-7.41340438 176.1579811 -7.41804896 158.86700305 -7.42397071 141.57602348 C-7.42984319 124.21503046 -7.43211037 106.85403998 -7.43064005 89.49304599 C-7.42987642 79.16417429 -7.43193431 68.83531188 -7.43793621 58.50644185 C-7.44166617 51.62023035 -7.44181649 44.73402498 -7.43897049 37.84781306 C-7.43745033 33.91553731 -7.43756754 29.98327922 -7.44202185 26.05100531 C-7.44676742 21.82987112 -7.44390548 17.60877805 -7.4401865 13.38764286 C-7.44281351 12.14690216 -7.44544053 10.90616145 -7.44814715 9.62782255 C-7.44589985 8.51467692 -7.44365256 7.4015313 -7.44133717 6.25465399 C-7.44149315 5.2877301 -7.44164913 4.32080621 -7.44180984 3.3245816 C-7.18045995 -1.21068596 -3.82809478 0.02179831 0 0 Z " fill="#3479F2" transform="translate(129.317138671875,111.8388671875)"/>
<path d="M0 0 C87.37777778 0 87.37777778 0 100 10 C109.45208204 19.63385285 112.30203317 30.2499597 112.31469727 43.40795898 C112.14935528 52.55851258 109.71652676 60.36582648 103.34765625 67.140625 C98.4487097 71.02065588 92.68336035 73.47756545 87 76 C88.16015625 76.41958984 88.16015625 76.41958984 89.34375 76.84765625 C100.86147803 81.28084117 106.58436877 86.00878275 111.87109375 97.23046875 C115.84553685 106.98091912 115.63233412 121.13296767 111.97265625 130.9375 C106.52758617 142.48367271 98.88987494 149.25286822 87 154 C81.51385283 155.58397789 76.56280166 156.28494862 70.83984375 156.22705078 C69.66380333 156.22741239 69.66380333 156.22741239 68.46400452 156.2277813 C65.95504953 156.22630222 63.44640102 156.21113489 60.9375 156.1953125 C59.37695458 156.19236769 57.81640717 156.19032995 56.25585938 156.18920898 C50.5038759 156.17877237 44.75193486 156.15084985 39 156.125 C26.13 156.08375 13.26 156.0425 0 156 C0 104.52 0 53.04 0 0 Z M30 29 C30 39.56 30 50.12 30 61 C35.40858151 61.09219173 40.81440123 61.17171712 46.22314453 61.21972656 C48.06015293 61.23975373 49.89709829 61.26698382 51.73388672 61.30175781 C54.38525002 61.35067065 57.03576541 61.37305763 59.6875 61.390625 C60.49928711 61.41127014 61.31107422 61.43191528 62.14746094 61.45318604 C67.87123737 61.45540249 72.23260559 60.2435033 77 57 C80.82777114 52.68148897 82.0658899 48.6555495 82 43 C81.20376664 37.22730813 79.11723932 34.68865552 74.75390625 31.1640625 C71.85879953 29.24258855 69.36607636 28.87581679 65.98754883 28.88647461 C65.18694534 28.88655014 64.38634186 28.88662567 63.56147766 28.88670349 C62.27227669 28.89444542 62.27227669 28.89444542 60.95703125 28.90234375 C60.0734343 28.9037587 59.18983734 28.90517365 58.27946472 28.90663147 C55.45710872 28.91222931 52.63483203 28.92478139 49.8125 28.9375 C47.89908969 28.94251528 45.98567813 28.94707814 44.07226562 28.95117188 C39.38145527 28.96134717 34.69081642 28.98092302 30 29 Z M30 90 C30 102.21 30 114.42 30 127 C35.55097386 127.09217484 41.09925927 127.1717064 46.65039062 127.21972656 C48.53589916 127.23975767 50.42134623 127.26699073 52.30664062 127.30175781 C55.02749862 127.35065272 57.74753056 127.37305382 60.46875 127.390625 C61.71924133 127.42159271 61.71924133 127.42159271 62.99499512 127.45318604 C69.986313 127.4558256 75.3190562 125.61039265 80.375 120.6875 C83.66744839 115.24229689 84.44631789 110.34371997 83.5390625 104.140625 C82.44352804 99.79024179 79.89995903 96.98177349 76.9375 93.75 C67.94292404 88.39152921 55.90856673 89.76171312 45.8125 89.875 C37.9853125 89.936875 37.9853125 89.936875 30 90 Z " fill="#3479F2" transform="translate(1117,531)"/>
<path d="M0 0 C6.1879008 5.67515572 9.87428031 13.03099915 11.63671875 21.21484375 C11.70604315 23.97672778 11.73066872 26.70503944 11.69921875 29.46484375 C11.67859375 32.02234375 11.65796875 34.57984375 11.63671875 37.21484375 C1.73671875 37.21484375 -8.16328125 37.21484375 -18.36328125 37.21484375 C-19.11328125 30.08984375 -19.11328125 30.08984375 -19.31933594 27.88232422 C-19.89902349 23.04678578 -21.3368537 19.99227369 -24.36328125 16.21484375 C-28.84167115 13.22925048 -33.11641596 13.50175047 -38.36328125 14.21484375 C-42.29182823 15.90750427 -44.49737977 18.95215196 -46.23828125 22.77734375 C-49.6549787 33.66167335 -46.84978848 43.4271879 -41.8203125 53.21875 C-35.75127061 64.09302871 -27.71955199 73.06543545 -19.36328125 82.21484375 C-17.04242898 84.80434773 -14.72405749 87.39605211 -12.40625 89.98828125 C-10.44619946 92.124474 -8.42923211 94.181391 -6.36328125 96.21484375 C-3.57929525 86.58225219 -2.40602852 77.16104846 -1.36328125 67.21484375 C8.20671875 67.21484375 17.77671875 67.21484375 27.63671875 67.21484375 C27.63671875 83.51418171 27.63671875 83.51418171 26.38671875 89.83984375 C26.25249512 90.55221191 26.11827148 91.26458008 25.97998047 91.99853516 C23.93414961 102.33940719 20.15228838 111.72301872 15.63671875 121.21484375 C16.30876343 121.92447266 16.30876343 121.92447266 16.99438477 122.6484375 C19.0642083 124.83578288 21.13172105 127.02529993 23.19921875 129.21484375 C23.90369141 129.95863281 24.60816406 130.70242188 25.33398438 131.46875 C37.94910386 144.83961397 37.94910386 144.83961397 39.63671875 148.21484375 C34.7805385 148.38875654 29.92619491 148.51530697 25.06762695 148.59936523 C23.41756596 148.63442479 21.76772021 148.68208935 20.1184082 148.74291992 C6.3173265 149.23894189 6.3173265 149.23894189 2.03930664 146.63208008 C0.16796875 144.69921875 0.16796875 144.69921875 -1.22460938 142.74902344 C-1.60037109 142.24274414 -1.97613281 141.73646484 -2.36328125 141.21484375 C-5.2002202 140.99661768 -6.58748941 141.81357211 -9.0625 143.09375 C-9.69800781 143.42246094 -10.33351563 143.75117188 -10.98828125 144.08984375 C-11.67019531 144.44433594 -12.35210938 144.79882812 -13.0546875 145.1640625 C-29.71639729 152.74781873 -51.36026905 152.48493502 -68.36328125 146.21484375 C-78.13464191 141.43563103 -85.61618523 134.55682877 -89.36328125 124.21484375 C-93.41429704 109.6624823 -94.31707716 94.5237808 -86.73828125 80.83984375 C-82.29138395 74.10850545 -76.30953376 69.20680258 -69.36328125 65.21484375 C-69.70101562 64.44140625 -70.03875 63.66796875 -70.38671875 62.87109375 C-70.83273438 61.82953125 -71.27875 60.78796875 -71.73828125 59.71484375 C-72.17914062 58.69390625 -72.62 57.67296875 -73.07421875 56.62109375 C-78.03294194 43.51804339 -79.11844212 25.76282858 -73.6875 12.65234375 C-67.94298625 2.07837154 -60.35432231 -4.10351882 -49.07421875 -8.0234375 C-32.53576573 -12.67040917 -13.82992209 -10.44673454 0 0 Z M-56.36328125 85.21484375 C-61.86393108 91.95313979 -63.83385159 98.14049522 -63.609375 106.85546875 C-63.09808287 111.75738055 -61.11417645 114.44607009 -57.73828125 117.90234375 C-50.54335728 123.3690752 -42.136254 124.1000855 -33.36328125 123.21484375 C-29.93664315 122.43545156 -26.65602757 121.43869637 -23.36328125 120.21484375 C-23.9427313 116.93040335 -24.88188541 115.33990479 -27.27734375 113.04296875 C-27.8700708 112.46506592 -28.46279785 111.88716309 -29.07348633 111.29174805 C-29.70536865 110.68886963 -30.33725098 110.08599121 -30.98828125 109.46484375 C-32.27789135 108.20762371 -33.56567318 106.94852541 -34.8515625 105.6875 C-35.46596191 105.08566895 -36.08036133 104.48383789 -36.71337891 103.86376953 C-39.18655079 101.3920615 -41.44381292 98.76315345 -43.70703125 96.1015625 C-47.05039258 92.29296928 -50.55725725 88.56352474 -54.36328125 85.21484375 C-55.02328125 85.21484375 -55.68328125 85.21484375 -56.36328125 85.21484375 Z " fill="#3479F2" transform="translate(2191.36328125,317.78515625)"/>
<path d="M0 0 C3.7074297 2.63440737 6.47256953 5.20885429 9 9 C9.33 5.37 9.66 1.74 10 -2 C19.9 -2 29.8 -2 40 -2 C40.06790206 13.17802596 40.12308907 28.35598272 40.15543652 43.53412247 C40.17085985 50.58269974 40.1918618 57.63117545 40.22631836 64.6796875 C40.25958366 71.48780015 40.27687701 78.29580744 40.28463173 85.10399628 C40.29015487 87.69538783 40.30094003 90.28677393 40.31719017 92.87812042 C40.3391148 96.52075949 40.3419606 100.16296914 40.34057617 103.80566406 C40.351362 104.8659079 40.36214783 105.92615173 40.3732605 107.01852417 C40.31932653 120.21910955 37.03965301 132.89070588 27.9375 142.75 C16.62252209 153.31811469 1.66326855 156.68810788 -13.4921875 156.28125 C-28.45453827 155.08159604 -41.06073395 150.51785536 -51 139 C-47.47222991 130.77472553 -38.69267574 124.67145001 -32 119 C-28.61165479 120.27659485 -25.61819357 121.79893459 -22.5 123.625 C-15.79947628 126.99526342 -8.74991135 127.3474392 -1.53515625 125.30078125 C3.12931079 123.24216172 5.65144552 120.60316677 8 116 C8.93233271 112.34427438 9.10785175 108.9516956 9.0625 105.1875 C9.05347656 104.21167969 9.04445313 103.23585938 9.03515625 102.23046875 C9.02355469 101.49441406 9.01195313 100.75835938 9 100 C8.360625 100.886875 7.72125 101.77375 7.0625 102.6875 C2.71636727 107.91276499 -3.31943974 111.01517577 -10 112 C-21.2619134 112.83899641 -31.2075386 111.50101177 -40 104.01171875 C-52.43022452 91.50866088 -54.23853025 74.64926311 -54.2734375 57.7890625 C-54.26570313 56.53867187 -54.25796875 55.28828125 -54.25 54 C-54.25773437 52.74960937 -54.26546875 51.49921875 -54.2734375 50.2109375 C-54.24037256 34.24057373 -52.80882224 16.99668987 -41 5 C-29.39698351 -4.79562354 -13.52002384 -7.63566113 0 0 Z M-18.8125 29.875 C-23.69124589 36.84463698 -23.34036407 43.45458809 -23.31567383 51.66455078 C-23.31251937 53.86151004 -23.33597863 56.05711369 -23.36132812 58.25390625 C-23.36360215 59.66666499 -23.36430414 61.0794273 -23.36328125 62.4921875 C-23.36626221 63.76433105 -23.36924316 65.03647461 -23.37231445 66.34716797 C-22.82152122 71.7510816 -21.17804883 75.56723791 -17.6875 79.8125 C-13.24418018 83.42915567 -9.63197593 84.21614349 -4 83.9375 C1.21312965 83.24764224 3.53526981 81.97176388 7 78 C10.51605285 71.08537579 10.46112597 64.25877344 10.39111328 56.64624023 C10.375059 54.57012959 10.39100404 52.49597265 10.41015625 50.41992188 C10.5360813 37.98503786 10.5360813 37.98503786 4.625 27.5625 C-3.47180195 22.74297503 -12.0829493 22.19539509 -18.8125 29.875 Z " fill="#3479F3" transform="translate(2332,577)"/>
<path d="M0 0 C9.9 0 19.8 0 30 0 C30 51.48 30 102.96 30 156 C20.1 156 10.2 156 0 156 C-0.33 152.7 -0.66 149.4 -1 146 C-1.639375 146.886875 -2.27875 147.77375 -2.9375 148.6875 C-7.28363273 153.91276499 -13.31943974 157.01517577 -20 158 C-31.2619134 158.83899641 -41.2075386 157.50101177 -50 150.01171875 C-62.43022452 137.50866088 -64.23853025 120.64926311 -64.2734375 103.7890625 C-64.26570313 102.53867187 -64.25796875 101.28828125 -64.25 100 C-64.25773437 98.74960937 -64.26546875 97.49921875 -64.2734375 96.2109375 C-64.24037256 80.24057373 -62.80882224 62.99668987 -51 51 C-42.75717809 44.04115612 -33.67052594 41.33602748 -22.95703125 41.65234375 C-14.96839319 42.59156276 -8.47786507 46.16420625 -3 52 C-2.34 52.99 -1.68 53.98 -1 55 C-0.67 36.85 -0.34 18.7 0 0 Z M-28.8125 75.875 C-33.69124589 82.84463698 -33.34036407 89.45458809 -33.31567383 97.66455078 C-33.31251937 99.86151004 -33.33597863 102.05711369 -33.36132812 104.25390625 C-33.36360215 105.66666499 -33.36430414 107.0794273 -33.36328125 108.4921875 C-33.36626221 109.76433105 -33.36924316 111.03647461 -33.37231445 112.34716797 C-32.82152122 117.7510816 -31.17804883 121.56723791 -27.6875 125.8125 C-23.24418018 129.42915567 -19.63197593 130.21614349 -14 129.9375 C-8.78687035 129.24764224 -6.46473019 127.97176388 -3 124 C0.51605285 117.08537579 0.46112597 110.25877344 0.39111328 102.64624023 C0.375059 100.57012959 0.39100404 98.49597265 0.41015625 96.41992188 C0.5360813 83.98503786 0.5360813 83.98503786 -5.375 73.5625 C-13.47180195 68.74297503 -22.0829493 68.19539509 -28.8125 75.875 Z " fill="#3479F2" transform="translate(1651,531)"/>
<path d="M0 0 C9.9 0 19.8 0 30 0 C30 51.48 30 102.96 30 156 C20.1 156 10.2 156 0 156 C-0.33 152.7 -0.66 149.4 -1 146 C-1.639375 146.886875 -2.27875 147.77375 -2.9375 148.6875 C-7.28363273 153.91276499 -13.31943974 157.01517577 -20 158 C-31.2619134 158.83899641 -41.2075386 157.50101177 -50 150.01171875 C-62.43022452 137.50866088 -64.23853025 120.64926311 -64.2734375 103.7890625 C-64.26570313 102.53867187 -64.25796875 101.28828125 -64.25 100 C-64.25773437 98.74960937 -64.26546875 97.49921875 -64.2734375 96.2109375 C-64.24037256 80.24057373 -62.80882224 62.99668987 -51 51 C-42.75717809 44.04115612 -33.67052594 41.33602748 -22.95703125 41.65234375 C-14.96839319 42.59156276 -8.47786507 46.16420625 -3 52 C-2.34 52.99 -1.68 53.98 -1 55 C-0.67 36.85 -0.34 18.7 0 0 Z M-28.8125 75.875 C-33.69124589 82.84463698 -33.34036407 89.45458809 -33.31567383 97.66455078 C-33.31251937 99.86151004 -33.33597863 102.05711369 -33.36132812 104.25390625 C-33.36360215 105.66666499 -33.36430414 107.0794273 -33.36328125 108.4921875 C-33.36626221 109.76433105 -33.36924316 111.03647461 -33.37231445 112.34716797 C-32.82152122 117.7510816 -31.17804883 121.56723791 -27.6875 125.8125 C-23.24418018 129.42915567 -19.63197593 130.21614349 -14 129.9375 C-8.78687035 129.24764224 -6.46473019 127.97176388 -3 124 C0.51605285 117.08537579 0.46112597 110.25877344 0.39111328 102.64624023 C0.375059 100.57012959 0.39100404 98.49597265 0.41015625 96.41992188 C0.5360813 83.98503786 0.5360813 83.98503786 -5.375 73.5625 C-13.47180195 68.74297503 -22.0829493 68.19539509 -28.8125 75.875 Z " fill="#3479F2" transform="translate(1871,310)"/>
<path d="M0 0 C9.9 0 19.8 0 30 0 C30.33 17.82 30.66 35.64 31 54 C33.31 51.69 35.62 49.38 38 47 C47.36169756 41.69038049 56.58573192 40.30449832 67.1875 43.125 C76.79945515 46.46761902 83.17413148 52.03767274 88 61 C91.64880085 69.9057358 93.15897802 78.03570983 93.23828125 87.5859375 C93.246353 88.51991364 93.25442474 89.45388977 93.26274109 90.41616821 C93.27655195 92.39477706 93.28728747 94.37340942 93.29516602 96.35205078 C93.30661976 98.34951905 93.32696509 100.34695834 93.35668945 102.34423828 C93.60273796 118.9023406 93.1370468 134.62196207 82 148 C73.52117019 156.128327 63.85520503 158.39429022 52.35546875 158.27734375 C44.18272718 157.60183193 37.56725282 153.9588333 32 148 C31.505 147.01 31.505 147.01 31 146 C30.67 149.3 30.34 152.6 30 156 C20.1 156 10.2 156 0 156 C0 104.52 0 53.04 0 0 Z M33.125 75.9375 C29.74815448 80.80413031 29.83086164 85.02913519 29.796875 90.8359375 C29.79117493 91.59290924 29.78547485 92.34988098 29.77960205 93.12979126 C29.77017486 94.72844047 29.76362715 96.32710891 29.75976562 97.92578125 C29.75006091 100.35972277 29.71901752 102.79281896 29.6875 105.2265625 C29.68096898 106.78384918 29.6757189 108.34114187 29.671875 109.8984375 C29.6595282 110.62050385 29.6471814 111.34257019 29.63446045 112.08651733 C29.66186855 118.36398307 31.37421119 122.21559765 35.5625 126.8125 C39.59177664 129.90963056 44.04006952 130.25980588 49 130 C54.74812672 128.39806304 57.6822154 125.92927997 61 121 C63.66899395 114.22486151 63.33126306 107.32251157 63.3125 100.125 C63.32861328 98.89652344 63.34472656 97.66804687 63.36132812 96.40234375 C63.36591544 87.84241445 63.14005638 79.92642576 56.9375 73.5 C49.39230777 67.77331076 39.39318489 68.90141781 33.125 75.9375 Z " fill="#3479F2" transform="translate(1951,531)"/>
<path d="M0 0 C9.90012297 8.25593294 14.55963543 19.13969606 16.0625 31.8125 C18.32140537 69.44255776 18.32140537 69.44255776 10.3125 84.875 C9.91417969 85.64328125 9.51585937 86.4115625 9.10546875 87.203125 C3.66233386 96.42665041 -5.02604731 101.77760131 -14.984375 105.18359375 C-29.13865749 108.80398103 -46.46810093 108.39627729 -59.5625 101.5625 C-70.58858674 94.76946302 -76.25242713 86.59860072 -79.92578125 74.18359375 C-81.88368363 65.67926903 -81.8705598 57.31890367 -81.875 48.625 C-81.88724609 47.37847656 -81.89949219 46.13195312 -81.91210938 44.84765625 C-81.93693033 29.01188749 -79.87525214 14.77054871 -68.6875 2.875 C-50.98190134 -13.34910979 -19.27344606 -13.88341453 0 0 Z M-47.125 26.375 C-51.89799134 32.30547425 -50.90866462 39.20901625 -50.92773438 46.44360352 C-50.93742021 48.66916562 -50.96844532 50.89379592 -51 53.11914062 C-51.00653272 54.54426538 -51.01178214 55.96939671 -51.015625 57.39453125 C-51.0249707 58.68464111 -51.03431641 59.97475098 -51.04394531 61.30395508 C-50.53144479 66.43843801 -48.66740344 69.67734024 -45.4375 73.625 C-40.79147207 77.42629558 -36.48536673 78.10197398 -30.625 77.75 C-26.08242076 77.15029682 -23.18611939 75.95711708 -19.6875 72.875 C-14.26753821 65.69721277 -14.47194563 59.94842862 -14.44726562 51.21582031 C-14.43759841 49.1460695 -14.4065806 47.07732879 -14.375 45.0078125 C-14.36984375 43.69039063 -14.3646875 42.37296875 -14.359375 41.015625 C-14.3500293 39.81454102 -14.34068359 38.61345703 -14.33105469 37.37597656 C-14.89454267 31.84144389 -16.49557018 28.06692982 -20.5 24.0625 C-29.30782274 18.01791576 -39.8600953 18.1344726 -47.125 26.375 Z " fill="#3479F3" transform="translate(1436.6875,361.125)"/>
<path d="M0 0 C9.35625966 8.72604528 12.0058815 20.08328297 12.54911804 32.47027588 C12.62976614 37.00640586 12.60058669 41.54163165 12.5703125 46.078125 C12.56657346 47.74249093 12.56373071 49.40685909 12.56173706 51.07122803 C12.55417062 55.41125776 12.53458385 59.75114954 12.5123291 64.09112549 C12.49171842 68.53599177 12.48270308 72.98088076 12.47265625 77.42578125 C12.45132997 86.11725727 12.41620651 94.80859548 12.375 103.5 C3.135 103.5 -6.105 103.5 -15.625 103.5 C-16.12 100.035 -16.12 100.035 -16.625 96.5 C-17.594375 97.263125 -18.56375 98.02625 -19.5625 98.8125 C-30.33130489 106.50761767 -45.09997803 106.88417807 -57.796875 105.0390625 C-66.37251774 102.97993924 -73.19321713 99.24210915 -78.0625 91.75 C-83.57278735 81.5231509 -84.28949854 68.78232772 -81.375 57.58984375 C-78.96293103 50.86871406 -74.67637917 45.31180333 -68.625 41.5 C-60.21750124 37.6695093 -52.37007744 36.33953396 -43.1640625 36.40234375 C-41.9782106 36.40446617 -41.9782106 36.40446617 -40.7684021 36.40663147 C-38.26222834 36.41219496 -35.75614642 36.42474056 -33.25 36.4375 C-31.54297005 36.44251972 -29.83593868 36.4470818 -28.12890625 36.45117188 C-23.96090252 36.46215241 -19.79296679 36.47939161 -15.625 36.5 C-15.9044721 34.72762781 -16.19581553 32.95712467 -16.4921875 31.1875 C-16.65315918 30.20136719 -16.81413086 29.21523438 -16.97998047 28.19921875 C-17.9054715 24.32630851 -19.37940521 22.75780507 -22.625 20.5 C-31.13536106 16.03524955 -38.79820951 17.21269466 -47.78515625 19.55859375 C-50.3553593 20.41061429 -52.35151096 21.370179 -54.625 22.8125 C-55.615 23.369375 -56.605 23.92625 -57.625 24.5 C-62.49200554 22.79281169 -65.85751496 18.67473164 -69.4375 15.125 C-70.14326172 14.45210937 -70.84902344 13.77921875 -71.57617188 13.0859375 C-72.23810547 12.43109375 -72.90003906 11.77625 -73.58203125 11.1015625 C-74.49432495 10.20945068 -74.49432495 10.20945068 -75.42504883 9.29931641 C-76.625 7.5 -76.625 7.5 -76.44750977 5.39990234 C-74.13623406 0.06112302 -66.83592795 -3.45416686 -61.80078125 -5.8359375 C-59.09844952 -6.86135867 -56.40817851 -7.72234718 -53.625 -8.5 C-52.49578125 -8.83644531 -52.49578125 -8.83644531 -51.34375 -9.1796875 C-34.17107623 -13.47285594 -13.95775487 -11.19866379 0 0 Z M-53.1875 63.625 C-55.21957159 67.68914317 -55.20034367 69.96916859 -54.625 74.5 C-52.17699169 77.94534503 -49.58914467 79.23255238 -45.625 80.5 C-42.82816724 80.71622101 -40.16834637 80.83368265 -37.375 80.8125 C-36.61936768 80.80758545 -35.86373535 80.8026709 -35.08520508 80.79760742 C-28.43468321 80.65805596 -22.37469483 80.3170029 -17.53051758 75.35424805 C-15.18387066 71.83923855 -15.20615136 69.86650392 -15.375 65.6875 C-15.42914062 63.94533203 -15.42914062 63.94533203 -15.484375 62.16796875 C-15.53078125 61.28753906 -15.5771875 60.40710938 -15.625 59.5 C-19.77077275 59.44136106 -23.91643705 59.40619016 -28.0625 59.375 C-29.22716797 59.35824219 -30.39183594 59.34148437 -31.59179688 59.32421875 C-43.09399097 58.99208025 -43.09399097 58.99208025 -53.1875 63.625 Z " fill="#3479F2" transform="translate(1427.625,583.5)"/>
<path d="M0 0 C9.35625966 8.72604528 12.0058815 20.08328297 12.54911804 32.47027588 C12.62976614 37.00640586 12.60058669 41.54163165 12.5703125 46.078125 C12.56657346 47.74249093 12.56373071 49.40685909 12.56173706 51.07122803 C12.55417062 55.41125776 12.53458385 59.75114954 12.5123291 64.09112549 C12.49171842 68.53599177 12.48270308 72.98088076 12.47265625 77.42578125 C12.45132997 86.11725727 12.41620651 94.80859548 12.375 103.5 C3.135 103.5 -6.105 103.5 -15.625 103.5 C-16.12 100.035 -16.12 100.035 -16.625 96.5 C-17.594375 97.263125 -18.56375 98.02625 -19.5625 98.8125 C-30.33130489 106.50761767 -45.09997803 106.88417807 -57.796875 105.0390625 C-66.37251774 102.97993924 -73.19321713 99.24210915 -78.0625 91.75 C-83.57278735 81.5231509 -84.28949854 68.78232772 -81.375 57.58984375 C-78.96293103 50.86871406 -74.67637917 45.31180333 -68.625 41.5 C-60.21750124 37.6695093 -52.37007744 36.33953396 -43.1640625 36.40234375 C-41.9782106 36.40446617 -41.9782106 36.40446617 -40.7684021 36.40663147 C-38.26222834 36.41219496 -35.75614642 36.42474056 -33.25 36.4375 C-31.54297005 36.44251972 -29.83593868 36.4470818 -28.12890625 36.45117188 C-23.96090252 36.46215241 -19.79296679 36.47939161 -15.625 36.5 C-15.9044721 34.72762781 -16.19581553 32.95712467 -16.4921875 31.1875 C-16.65315918 30.20136719 -16.81413086 29.21523438 -16.97998047 28.19921875 C-17.9054715 24.32630851 -19.37940521 22.75780507 -22.625 20.5 C-31.13536106 16.03524955 -38.79820951 17.21269466 -47.78515625 19.55859375 C-50.3553593 20.41061429 -52.35151096 21.370179 -54.625 22.8125 C-55.615 23.369375 -56.605 23.92625 -57.625 24.5 C-62.49200554 22.79281169 -65.85751496 18.67473164 -69.4375 15.125 C-70.14326172 14.45210938 -70.84902344 13.77921875 -71.57617188 13.0859375 C-72.23810547 12.43109375 -72.90003906 11.77625 -73.58203125 11.1015625 C-74.49432495 10.20945068 -74.49432495 10.20945068 -75.42504883 9.29931641 C-76.625 7.5 -76.625 7.5 -76.44750977 5.39990234 C-74.13623406 0.06112302 -66.83592795 -3.45416686 -61.80078125 -5.8359375 C-59.09844952 -6.86135867 -56.40817851 -7.72234718 -53.625 -8.5 C-52.49578125 -8.83644531 -52.49578125 -8.83644531 -51.34375 -9.1796875 C-34.17107623 -13.47285594 -13.95775487 -11.19866379 0 0 Z M-53.1875 63.625 C-55.21957159 67.68914317 -55.20034367 69.96916859 -54.625 74.5 C-52.17699169 77.94534503 -49.58914467 79.23255238 -45.625 80.5 C-42.82816724 80.71622101 -40.16834637 80.83368265 -37.375 80.8125 C-36.61936768 80.80758545 -35.86373535 80.8026709 -35.08520508 80.79760742 C-28.43468321 80.65805596 -22.37469483 80.3170029 -17.53051758 75.35424805 C-15.18387066 71.83923855 -15.20615136 69.86650392 -15.375 65.6875 C-15.42914062 63.94533203 -15.42914062 63.94533203 -15.484375 62.16796875 C-15.53078125 61.28753906 -15.5771875 60.40710938 -15.625 59.5 C-19.77077275 59.44136106 -23.91643705 59.40619016 -28.0625 59.375 C-29.22716797 59.35824219 -30.39183594 59.34148437 -31.59179688 59.32421875 C-43.09399097 58.99208025 -43.09399097 58.99208025 -53.1875 63.625 Z " fill="#3479F2" transform="translate(1678.625,362.5)"/>
<path d="M0 0 C-0.86501268 4.41919013 -3.33827237 7.07554885 -6.25 10.375 C-7.21373971 11.48680753 -8.1772824 12.59878588 -9.140625 13.7109375 C-9.61306641 14.25202148 -10.08550781 14.79310547 -10.57226562 15.35058594 C-12.75259898 17.86945259 -14.87570093 20.4337847 -17 23 C-17.67289063 22.72285156 -18.34578125 22.44570313 -19.0390625 22.16015625 C-22.45324974 20.82240743 -25.90243549 19.61245406 -29.375 18.4375 C-30.00921875 18.21642578 -30.6434375 17.99535156 -31.296875 17.76757812 C-41.31936499 14.382431 -51.86670959 13.70362842 -62 17 C-62.99 17.66 -63.98 18.32 -65 19 C-65.25030977 21.58380177 -65.25030977 21.58380177 -65 24 C-60.03767686 26.3519533 -55.55391397 27.5924139 -50.08203125 28.2109375 C-48.56440955 28.40591113 -47.04683281 28.60123493 -45.52929688 28.796875 C-43.17832329 29.08778754 -40.82689321 29.37329872 -38.47436523 29.65136719 C-26.58087869 31.07813501 -13.49680392 32.6742396 -5 42 C1.06992997 52.0336274 2.57786834 62.31012217 0.46875 73.92578125 C-2.15779635 83.33281409 -7.76859411 90.23057968 -15.78125 95.80078125 C-34.10009864 105.70198993 -58.41593442 103.43171865 -77.75 97.93359375 C-85.83341597 95.24798515 -92.8266733 91.55887246 -100 87 C-97.35732275 82.16929964 -93.9335536 78.09795584 -90.4375 73.875 C-89.26835746 72.45669594 -88.10034229 71.03746161 -86.93359375 69.6171875 C-86.41853271 68.99440918 -85.90347168 68.37163086 -85.37280273 67.72998047 C-84.1691003 66.21309706 -83.07414866 64.61122298 -82 63 C-78.11274359 64.15567082 -74.574279 65.67227978 -70.9375 67.4375 C-58.62527405 73.08408395 -45.08468405 75.197463 -32 71 C-29.81284454 70.18810013 -29.81284454 70.18810013 -28 69 C-26.91776634 66.08995097 -26.91776634 66.08995097 -27 63 C-29.04230666 59.6362008 -32.3825494 59.08039038 -36 58 C-38.13740928 57.63652004 -40.28492222 57.32924301 -42.4375 57.0703125 C-44.27634766 56.83634766 -44.27634766 56.83634766 -46.15234375 56.59765625 C-48.68572006 56.28644962 -51.21956839 55.97905789 -53.75390625 55.67578125 C-79.02798239 52.43416356 -79.02798239 52.43416356 -87 44 C-94.20406028 34.62386124 -93.89114981 24.41318955 -93 13 C-92.22787647 9.19984986 -91.06340742 6.27170907 -89 3 C-88.56042969 2.29875 -88.12085938 1.5975 -87.66796875 0.875 C-81.93844201 -6.78370916 -72.00377826 -11.38702763 -62.8125 -13.4375 C-40.50778981 -16.3939417 -18.93791481 -12.44002982 0 0 Z " fill="#3479F3" transform="translate(2020,366)"/>
<path d="M0 0 C0.66515625 0.53882813 1.3303125 1.07765625 2.015625 1.6328125 C2.61890625 2.08914063 3.2221875 2.54546875 3.84375 3.015625 C13.42783739 11.26139388 18.15397483 25.56418378 20.015625 37.6328125 C20.14453125 38.4578125 20.2734375 39.2828125 20.40625 40.1328125 C21.34574542 47.64877586 21.015625 55.00781153 21.015625 62.6328125 C-1.424375 62.9628125 -23.864375 63.2928125 -46.984375 63.6328125 C-43.58066413 73.19051515 -43.58066413 73.19051515 -36.046875 78.9453125 C-27.09660021 82.54599776 -18.08816713 81.24046625 -9.32421875 77.80078125 C-6.97312174 76.62719526 -5.02661101 75.27886416 -2.984375 73.6328125 C1.00107497 75.26713371 3.86054094 78.03805183 6.953125 80.9453125 C7.46552734 81.41904297 7.97792969 81.89277344 8.50585938 82.38085938 C11.74986449 85.39403312 14.90227626 88.48506211 18.015625 91.6328125 C6.6133368 103.28297653 -8.67809009 108.76990189 -24.796875 109.0703125 C-39.17460646 108.97644265 -53.52956217 104.85529615 -63.984375 94.6328125 C-77.48531185 77.61283446 -77.80088024 55.4876759 -75.51953125 34.72265625 C-73.64340615 21.14421943 -68.48874011 9.39180122 -57.421875 1.0078125 C-41.39543319 -9.82021695 -15.95196835 -11.87790449 0 0 Z M-43.984375 28.6328125 C-47.10633894 33.65025454 -47.19064463 36.28296958 -47.984375 42.6328125 C-34.454375 42.6328125 -20.924375 42.6328125 -6.984375 42.6328125 C-8.7915674 32.6932543 -9.89270509 27.4219622 -17.671875 21.6328125 C-27.84644688 18.56124363 -37.05161261 20.35201298 -43.984375 28.6328125 Z " fill="#3479F3" transform="translate(2472.984375,580.3671875)"/>
<path d="M0 0 C0.66515625 0.53882813 1.3303125 1.07765625 2.015625 1.6328125 C2.61890625 2.08914063 3.2221875 2.54546875 3.84375 3.015625 C13.42783739 11.26139388 18.15397483 25.56418378 20.015625 37.6328125 C20.14453125 38.4578125 20.2734375 39.2828125 20.40625 40.1328125 C21.34574542 47.64877586 21.015625 55.00781153 21.015625 62.6328125 C-1.424375 62.9628125 -23.864375 63.2928125 -46.984375 63.6328125 C-43.58066413 73.19051515 -43.58066413 73.19051515 -36.046875 78.9453125 C-27.09660021 82.54599776 -18.08816713 81.24046625 -9.32421875 77.80078125 C-6.97312174 76.62719526 -5.02661101 75.27886416 -2.984375 73.6328125 C1.00107497 75.26713371 3.86054094 78.03805183 6.953125 80.9453125 C7.46552734 81.41904297 7.97792969 81.89277344 8.50585938 82.38085938 C11.74986449 85.39403312 14.90227626 88.48506211 18.015625 91.6328125 C6.6133368 103.28297653 -8.67809009 108.76990189 -24.796875 109.0703125 C-39.17460646 108.97644265 -53.52956217 104.85529615 -63.984375 94.6328125 C-77.48531185 77.61283446 -77.80088024 55.4876759 -75.51953125 34.72265625 C-73.64340615 21.14421943 -68.48874011 9.39180122 -57.421875 1.0078125 C-41.39543319 -9.82021695 -15.95196835 -11.87790449 0 0 Z M-43.984375 28.6328125 C-47.10633894 33.65025454 -47.19064463 36.28296958 -47.984375 42.6328125 C-34.454375 42.6328125 -20.924375 42.6328125 -6.984375 42.6328125 C-8.7915674 32.6932543 -9.89270509 27.4219622 -17.671875 21.6328125 C-27.84644688 18.56124363 -37.05161261 20.35201298 -43.984375 28.6328125 Z " fill="#3479F3" transform="translate(1781.984375,580.3671875)"/>
<path d="M0 0 C0.66515625 0.53882813 1.3303125 1.07765625 2.015625 1.6328125 C2.61890625 2.08914063 3.2221875 2.54546875 3.84375 3.015625 C13.42783739 11.26139388 18.15397483 25.56418378 20.015625 37.6328125 C20.14453125 38.4578125 20.2734375 39.2828125 20.40625 40.1328125 C21.34574542 47.64877586 21.015625 55.00781153 21.015625 62.6328125 C-1.424375 62.9628125 -23.864375 63.2928125 -46.984375 63.6328125 C-43.58066413 73.19051515 -43.58066413 73.19051515 -36.046875 78.9453125 C-27.09660021 82.54599776 -18.08816713 81.24046625 -9.32421875 77.80078125 C-6.97312174 76.62719526 -5.02661101 75.27886416 -2.984375 73.6328125 C1.00107497 75.26713371 3.86054094 78.03805183 6.953125 80.9453125 C7.46552734 81.41904297 7.97792969 81.89277344 8.50585938 82.38085938 C11.74986449 85.39403312 14.90227626 88.48506211 18.015625 91.6328125 C6.6133368 103.28297653 -8.67809009 108.76990189 -24.796875 109.0703125 C-39.17460646 108.97644265 -53.52956217 104.85529615 -63.984375 94.6328125 C-77.48531185 77.61283446 -77.80088024 55.4876759 -75.51953125 34.72265625 C-73.64340615 21.14421943 -68.48874011 9.39180122 -57.421875 1.0078125 C-41.39543319 -9.82021695 -15.95196835 -11.87790449 0 0 Z M-43.984375 28.6328125 C-47.10633894 33.65025454 -47.19064463 36.28296958 -47.984375 42.6328125 C-34.454375 42.6328125 -20.924375 42.6328125 -6.984375 42.6328125 C-8.7915674 32.6932543 -9.89270509 27.4219622 -17.671875 21.6328125 C-27.84644688 18.56124363 -37.05161261 20.35201298 -43.984375 28.6328125 Z " fill="#3479F3" transform="translate(1312.984375,359.3671875)"/>
<path d="M0 0 C9.9 0 19.8 0 30 0 C30.01458252 2.17996582 30.02916504 4.35993164 30.04418945 6.60595703 C30.09458638 13.818507 30.16119044 21.03084223 30.23571491 28.24318123 C30.28039182 32.61490145 30.31965377 36.98652906 30.34643555 41.35839844 C30.37249539 45.57960838 30.41291653 49.80046143 30.46318626 54.02145004 C30.4798369 55.62969388 30.49136241 57.23799942 30.49761391 58.84631729 C30.5072749 61.10381499 30.53535629 63.36040335 30.56762695 65.61767578 C30.57873001 66.90118927 30.58983307 68.18470276 30.60127258 69.5071106 C31.1095265 73.95946236 32.63793135 77.18390846 35.3125 80.75 C39.75297154 84.03923818 44.63807649 84.46223479 50 84 C54.5814199 82.97713139 57.323879 81.78013961 60.4375 78.1875 C63.0177798 72.92372922 63.13102154 67.78032 63.20532227 61.98486328 C63.21522186 61.31099075 63.22512146 60.63711823 63.23532104 59.94282532 C63.26668184 57.73535568 63.29159184 55.52786459 63.31640625 53.3203125 C63.33699779 51.78188547 63.35799482 50.24346382 63.37937927 48.70504761 C63.43437285 44.67082088 63.48388155 40.63654503 63.53222656 36.60223389 C63.59147812 31.75376047 63.65758019 26.90537615 63.72252655 22.05697632 C63.82024998 14.70470564 63.9093014 7.35237581 64 0 C73.9 0 83.8 0 94 0 C94 36.96 94 73.92 94 112 C84.1 112 74.2 112 64 112 C63.67 108.04 63.34 104.08 63 100 C61.845 101.4025 60.69 102.805 59.5 104.25 C54.88179434 109.46701385 50.60626813 111.79791062 44 114 C31.97603799 114.71610854 21.62999913 113.77212149 12 106 C6.59212163 100.07883148 2.78866283 93.83463883 1 86 C0.82759293 85.29736526 0.65518585 84.59473053 0.47755432 83.87080383 C-0.12709522 80.2359708 -0.13138129 76.669215 -0.11352539 72.99682617 C-0.11367142 72.20605682 -0.11381744 71.41528748 -0.1139679 70.60055542 C-0.11327362 67.99799821 -0.105504 65.39551339 -0.09765625 62.79296875 C-0.09579035 60.98407531 -0.09436726 59.17518136 -0.09336853 57.36628723 C-0.08955694 52.61356197 -0.07973825 47.86086744 -0.06866455 43.1081543 C-0.05842123 38.2550498 -0.05386465 33.40194032 -0.04882812 28.54882812 C-0.03811475 19.03253643 -0.02052895 9.51627558 0 0 Z " fill="#3479F2" transform="translate(2068,575)"/>
<path d="M0 0 C9.78542478 7.82833983 15.0555811 16.62819397 16.8125 29.25 C17.08710744 35.37737488 17.04572715 41.49671523 17.0078125 47.62890625 C17.00407697 49.40966126 17.00123255 51.19041834 16.99923706 52.97117615 C16.99164307 57.63182363 16.97203147 62.29234417 16.9498291 66.95294189 C16.92927892 71.71926151 16.92021582 76.48560187 16.91015625 81.25195312 C16.88878114 90.58469983 16.85363404 99.91731944 16.8125 109.25 C6.9125 109.25 -2.9875 109.25 -13.1875 109.25 C-13.20208252 107.07003418 -13.21666504 104.89006836 -13.23168945 102.64404297 C-13.28208638 95.431493 -13.34869044 88.21915777 -13.42321491 81.00681877 C-13.46789182 76.63509855 -13.50715377 72.26347094 -13.53393555 67.89160156 C-13.55999539 63.67039162 -13.60041653 59.44953857 -13.65068626 55.22854996 C-13.6673369 53.62030612 -13.67886241 52.01200058 -13.68511391 50.40368271 C-13.6947749 48.14618501 -13.72285629 45.88959665 -13.75512695 43.63232422 C-13.77178154 41.70705399 -13.77178154 41.70705399 -13.78877258 39.7428894 C-14.22526858 35.91914375 -15.17334001 33.51232138 -17.1875 30.25 C-22.87037349 25.77624853 -27.02281792 24.76425884 -34.1875 25.25 C-39.35830005 26.9151729 -42.21648102 28.67920157 -45.1875 33.25 C-46.35804735 36.76164205 -46.34816226 39.58496784 -46.39282227 43.29174805 C-46.40767166 44.36042114 -46.40767166 44.36042114 -46.42282104 45.45068359 C-46.454395 47.80432824 -46.47917719 50.15799306 -46.50390625 52.51171875 C-46.52447933 54.14411441 -46.54547589 55.77650479 -46.56687927 57.40888977 C-46.62206344 61.70455646 -46.67148883 66.00027094 -46.71972656 70.29602051 C-46.76996827 74.67981212 -46.8256404 79.06353438 -46.88085938 83.44726562 C-46.98839627 92.04812002 -47.08934931 100.64903336 -47.1875 109.25 C-57.0875 109.25 -66.9875 109.25 -77.1875 109.25 C-77.1875 72.29 -77.1875 35.33 -77.1875 -2.75 C-67.2875 -2.75 -57.3875 -2.75 -47.1875 -2.75 C-46.8575 0.88 -46.5275 4.51 -46.1875 8.25 C-45.383125 7.198125 -44.57875 6.14625 -43.75 5.0625 C-32.87072074 -7.64717932 -13.91084523 -7.63732679 0 0 Z " fill="#3479F2" transform="translate(1905.1875,577.75)"/>
<path d="M0 0 C9.78542478 7.82833983 15.0555811 16.62819397 16.8125 29.25 C17.08710744 35.37737488 17.04572715 41.49671523 17.0078125 47.62890625 C17.00407697 49.40966126 17.00123255 51.19041834 16.99923706 52.97117615 C16.99164307 57.63182363 16.97203147 62.29234417 16.9498291 66.95294189 C16.92927892 71.71926151 16.92021582 76.48560187 16.91015625 81.25195312 C16.88878114 90.58469983 16.85363404 99.91731944 16.8125 109.25 C6.9125 109.25 -2.9875 109.25 -13.1875 109.25 C-13.20208252 107.07003418 -13.21666504 104.89006836 -13.23168945 102.64404297 C-13.28208638 95.431493 -13.34869044 88.21915777 -13.42321491 81.00681877 C-13.46789182 76.63509855 -13.50715377 72.26347094 -13.53393555 67.89160156 C-13.55999539 63.67039162 -13.60041653 59.44953857 -13.65068626 55.22854996 C-13.6673369 53.62030612 -13.67886241 52.01200058 -13.68511391 50.40368271 C-13.6947749 48.14618501 -13.72285629 45.88959665 -13.75512695 43.63232422 C-13.77178154 41.70705399 -13.77178154 41.70705399 -13.78877258 39.7428894 C-14.22526858 35.91914375 -15.17334001 33.51232138 -17.1875 30.25 C-22.87037349 25.77624853 -27.02281792 24.76425884 -34.1875 25.25 C-39.35830005 26.9151729 -42.21648102 28.67920157 -45.1875 33.25 C-46.35804735 36.76164205 -46.34816226 39.58496784 -46.39282227 43.29174805 C-46.40767166 44.36042114 -46.40767166 44.36042114 -46.42282104 45.45068359 C-46.454395 47.80432824 -46.47917719 50.15799306 -46.50390625 52.51171875 C-46.52447933 54.14411441 -46.54547589 55.77650479 -46.56687927 57.40888977 C-46.62206344 61.70455646 -46.67148883 66.00027094 -46.71972656 70.29602051 C-46.76996827 74.67981212 -46.8256404 79.06353438 -46.88085938 83.44726562 C-46.98839627 92.04812002 -47.08934931 100.64903336 -47.1875 109.25 C-57.0875 109.25 -66.9875 109.25 -77.1875 109.25 C-77.1875 72.29 -77.1875 35.33 -77.1875 -2.75 C-67.2875 -2.75 -57.3875 -2.75 -47.1875 -2.75 C-46.8575 0.88 -46.5275 4.51 -46.1875 8.25 C-45.383125 7.198125 -44.57875 6.14625 -43.75 5.0625 C-32.87072074 -7.64717932 -13.91084523 -7.63732679 0 0 Z " fill="#3479F2" transform="translate(1545.1875,577.75)"/>
<path d="M0 0 C9.78542478 7.82833983 15.0555811 16.62819397 16.8125 29.25 C17.08710744 35.37737488 17.04572715 41.49671523 17.0078125 47.62890625 C17.00407697 49.40966126 17.00123255 51.19041834 16.99923706 52.97117615 C16.99164307 57.63182363 16.97203147 62.29234417 16.9498291 66.95294189 C16.92927892 71.71926151 16.92021582 76.48560187 16.91015625 81.25195312 C16.88878114 90.58469983 16.85363404 99.91731944 16.8125 109.25 C6.9125 109.25 -2.9875 109.25 -13.1875 109.25 C-13.20208252 107.07003418 -13.21666504 104.89006836 -13.23168945 102.64404297 C-13.28208638 95.431493 -13.34869044 88.21915777 -13.42321491 81.00681877 C-13.46789182 76.63509855 -13.50715377 72.26347094 -13.53393555 67.89160156 C-13.55999539 63.67039162 -13.60041653 59.44953857 -13.65068626 55.22854996 C-13.6673369 53.62030612 -13.67886241 52.01200058 -13.68511391 50.40368271 C-13.6947749 48.14618501 -13.72285629 45.88959665 -13.75512695 43.63232422 C-13.77178154 41.70705399 -13.77178154 41.70705399 -13.78877258 39.7428894 C-14.22526858 35.91914375 -15.17334001 33.51232138 -17.1875 30.25 C-22.87037349 25.77624853 -27.02281792 24.76425884 -34.1875 25.25 C-39.35830005 26.9151729 -42.21648102 28.67920157 -45.1875 33.25 C-46.35804735 36.76164205 -46.34816226 39.58496784 -46.39282227 43.29174805 C-46.40767166 44.36042114 -46.40767166 44.36042114 -46.42282104 45.45068359 C-46.454395 47.80432824 -46.47917719 50.15799306 -46.50390625 52.51171875 C-46.52447933 54.14411441 -46.54547589 55.77650479 -46.56687927 57.40888977 C-46.62206344 61.70455646 -46.67148883 66.00027094 -46.71972656 70.29602051 C-46.76996827 74.67981212 -46.8256404 79.06353438 -46.88085938 83.44726562 C-46.98839627 92.04812002 -47.08934931 100.64903336 -47.1875 109.25 C-57.0875 109.25 -66.9875 109.25 -77.1875 109.25 C-77.1875 72.29 -77.1875 35.33 -77.1875 -2.75 C-67.2875 -2.75 -57.3875 -2.75 -47.1875 -2.75 C-46.8575 0.88 -46.5275 4.51 -46.1875 8.25 C-45.383125 7.198125 -44.57875 6.14625 -43.75 5.0625 C-32.87072074 -7.64717932 -13.91084523 -7.63732679 0 0 Z " fill="#3479F2" transform="translate(1556.1875,356.75)"/>
<path d="M0 0 C9.9 0 19.8 0 30 0 C30 41.91 30 83.82 30 127 C54.75 127 79.5 127 105 127 C105 136.57 105 146.14 105 156 C70.35 156 35.7 156 0 156 C0 104.52 0 53.04 0 0 Z " fill="#347AF2" transform="translate(1117,310)"/>
<path d="M0 0 C3.1875 2.25 3.1875 2.25 5 4 C4.38273663 7.2144281 3.28638786 9.3195168 1.3828125 11.96875 C0.85816406 12.70480469 0.33351563 13.44085937 -0.20703125 14.19921875 C-0.75746094 14.95847656 -1.30789062 15.71773437 -1.875 16.5 C-2.68904297 17.63888672 -2.68904297 17.63888672 -3.51953125 18.80078125 C-5.97557884 22.22963987 -8.46211706 25.63117869 -11 29 C-13.36246082 28.45481673 -15.53767339 27.79687894 -17.8125 26.9375 C-24.3261128 25.02173153 -29.03532694 25.84885197 -35 29 C-39.13026129 32.09769596 -40.82560954 36.08126308 -42 41 C-42.46906467 46.28938978 -42.48971868 51.56951729 -42.51171875 56.875 C-42.52858634 58.41057757 -42.54673935 59.9461415 -42.56611633 61.48168945 C-42.61339709 65.49944803 -42.64334755 69.51715131 -42.66955566 73.53509521 C-42.70474378 78.36867353 -42.76169346 83.20203963 -42.81494904 88.03544617 C-42.89320566 95.35693627 -42.94400487 102.67815349 -43 110 C-53.56 110 -64.12 110 -75 110 C-75 73.04 -75 36.08 -75 -2 C-64.44 -2 -53.88 -2 -43 -2 C-42.505 3.445 -42.505 3.445 -42 9 C-40.824375 7.7625 -39.64875 6.525 -38.4375 5.25 C-27.45437826 -5.73312174 -13.86511563 -6.79482488 0 0 Z " fill="#3479F2" transform="translate(2594,577)"/>
<path d="M0 0 C3.1875 2.25 3.1875 2.25 5 4 C4.38273663 7.2144281 3.28638786 9.3195168 1.3828125 11.96875 C0.85816406 12.70480469 0.33351563 13.44085937 -0.20703125 14.19921875 C-0.75746094 14.95847656 -1.30789062 15.71773437 -1.875 16.5 C-2.68904297 17.63888672 -2.68904297 17.63888672 -3.51953125 18.80078125 C-5.97557884 22.22963987 -8.46211706 25.63117869 -11 29 C-13.36246082 28.45481673 -15.53767339 27.79687894 -17.8125 26.9375 C-24.3261128 25.02173153 -29.03532694 25.84885197 -35 29 C-39.13026129 32.09769596 -40.82560954 36.08126308 -42 41 C-42.46906467 46.28938978 -42.48971868 51.56951729 -42.51171875 56.875 C-42.52858634 58.41057757 -42.54673935 59.9461415 -42.56611633 61.48168945 C-42.61339709 65.49944803 -42.64334755 69.51715131 -42.66955566 73.53509521 C-42.70474378 78.36867353 -42.76169346 83.20203963 -42.81494904 88.03544617 C-42.89320566 95.35693627 -42.94400487 102.67815349 -43 110 C-53.56 110 -64.12 110 -75 110 C-75 73.04 -75 36.08 -75 -2 C-64.44 -2 -53.88 -2 -43 -2 C-42.505 3.445 -42.505 3.445 -42 9 C-40.824375 7.7625 -39.64875 6.525 -38.4375 5.25 C-27.45437826 -5.73312174 -13.86511563 -6.79482488 0 0 Z " fill="#3479F2" transform="translate(2265,577)"/>
<path d="M0 0 C3.1875 2.25 3.1875 2.25 5 4 C4.38273663 7.2144281 3.28638786 9.3195168 1.3828125 11.96875 C0.85816406 12.70480469 0.33351563 13.44085937 -0.20703125 14.19921875 C-0.75746094 14.95847656 -1.30789063 15.71773437 -1.875 16.5 C-2.68904297 17.63888672 -2.68904297 17.63888672 -3.51953125 18.80078125 C-5.97557884 22.22963987 -8.46211706 25.63117869 -11 29 C-13.36246082 28.45481673 -15.53767339 27.79687894 -17.8125 26.9375 C-24.3261128 25.02173153 -29.03532694 25.84885197 -35 29 C-39.13026129 32.09769596 -40.82560954 36.08126308 -42 41 C-42.46906467 46.28938978 -42.48971868 51.56951729 -42.51171875 56.875 C-42.52858634 58.41057757 -42.54673935 59.9461415 -42.56611633 61.48168945 C-42.61339709 65.49944803 -42.64334755 69.51715131 -42.66955566 73.53509521 C-42.70474378 78.36867353 -42.76169346 83.20203963 -42.81494904 88.03544617 C-42.89320566 95.35693627 -42.94400487 102.67815349 -43 110 C-53.56 110 -64.12 110 -75 110 C-75 73.04 -75 36.08 -75 -2 C-64.44 -2 -53.88 -2 -43 -2 C-42.505 3.445 -42.505 3.445 -42 9 C-40.824375 7.7625 -39.64875 6.525 -38.4375 5.25 C-27.45437826 -5.73312174 -13.86511563 -6.79482488 0 0 Z " fill="#3479F2" transform="translate(1332,577)"/>
<path d="M0 0 C3.1875 2.25 3.1875 2.25 5 4 C4.38273663 7.2144281 3.28638786 9.3195168 1.3828125 11.96875 C0.85816406 12.70480469 0.33351563 13.44085938 -0.20703125 14.19921875 C-0.75746094 14.95847656 -1.30789063 15.71773438 -1.875 16.5 C-2.68904297 17.63888672 -2.68904297 17.63888672 -3.51953125 18.80078125 C-5.97557884 22.22963987 -8.46211706 25.63117869 -11 29 C-13.36246082 28.45481673 -15.53767339 27.79687894 -17.8125 26.9375 C-24.3261128 25.02173153 -29.03532694 25.84885197 -35 29 C-39.13026129 32.09769596 -40.82560954 36.08126308 -42 41 C-42.46906467 46.28938978 -42.48971868 51.56951729 -42.51171875 56.875 C-42.52858634 58.41057757 -42.54673935 59.9461415 -42.56611633 61.48168945 C-42.61339709 65.49944803 -42.64334755 69.51715131 -42.66955566 73.53509521 C-42.70474378 78.36867353 -42.76169346 83.20203963 -42.81494904 88.03544617 C-42.89320566 95.35693627 -42.94400487 102.67815349 -43 110 C-53.56 110 -64.12 110 -75 110 C-75 73.04 -75 36.08 -75 -2 C-64.44 -2 -53.88 -2 -43 -2 C-42.505 3.445 -42.505 3.445 -42 9 C-40.824375 7.7625 -39.64875 6.525 -38.4375 5.25 C-27.45437826 -5.73312174 -13.86511563 -6.79482488 0 0 Z " fill="#3479F2" transform="translate(1794,356)"/>
</svg>
