<?xml version="1.0" encoding="UTF-8"?>
<svg version="1.1" xmlns="http://www.w3.org/2000/svg" width="1024" height="1024">
<path d="M0 0 C105.6515625 -0.0928125 105.6515625 -0.0928125 213.4375 -0.1875 C235.65892334 -0.21481201 257.88034668 -0.24212402 280.77514648 -0.27026367 C307.95715332 -0.28381348 307.95715332 -0.28381348 320.69129944 -0.28633118 C329.56522524 -0.28912063 338.43909391 -0.30009051 347.31300354 -0.31672668 C357.56398549 -0.33591585 367.81491295 -0.34448619 378.06591297 -0.34033485 C383.30199993 -0.33853909 388.53796533 -0.34124796 393.77402961 -0.35764539 C453.81005292 -0.5363354 508.0622289 9.49291969 553 52 C553.87011719 52.81597656 554.74023438 53.63195312 555.63671875 54.47265625 C566.77954641 65.23064527 575.18803814 77.71019777 583 91 C583.36367676 91.61601074 583.72735352 92.23202148 584.10205078 92.86669922 C595.99581271 113.28972098 602.69656992 136.69310058 606 160 C606.14356934 160.9895166 606.14356934 160.9895166 606.29003906 161.99902344 C612.1970381 207.83648912 599.93761761 254.50055984 572.97265625 291.8046875 C567.70981821 298.54198118 561.85597397 304.78014325 556 311 C555.29359375 311.77214844 554.5871875 312.54429687 553.859375 313.33984375 C546.27285265 321.34623089 537.15893745 327.8940417 528 334 C528.62342285 334.28609131 529.2468457 334.57218262 529.88916016 334.86694336 C547.46555954 342.97825573 562.86640371 351.947034 578 364 C578.88945313 364.68320312 579.77890625 365.36640625 580.6953125 366.0703125 C593.58514556 376.18979338 605.04714971 388.10652189 614.74853516 401.29980469 C615.99732441 402.99636504 617.26887103 404.67395975 618.54296875 406.3515625 C654.4136094 454.28526415 664.62993259 516.97472141 656.54345703 575.29248047 C649.55690989 622.33254664 631.24550567 666.53538174 598.4453125 701.34375 C595.99344995 703.9417153 595.99344995 703.9417153 593.90625 706.640625 C592.17549776 708.78278555 590.47400135 710.48147971 588.375 712.25 C586.15593566 714.13640753 583.97228836 716.02619734 581.85546875 718.02734375 C528.8154797 767.99516989 454.07180919 774.40530913 385.00601673 774.20278788 C379.9239184 774.19008366 374.84181635 774.18909481 369.75970459 774.18673706 C360.18413704 774.18057906 350.60861646 774.16424718 341.03306937 774.14403808 C330.11123182 774.12149965 319.18939175 774.11064105 308.26753664 774.10064721 C285.84499863 774.07987426 263.42250197 774.04481177 241 774 C242.87056766 769.81772432 245.65481238 767.63983498 249.25 764.9375 C250.52747816 763.95590407 251.80481816 762.97412831 253.08203125 761.9921875 C254.06163818 761.24533691 254.06163818 761.24533691 255.06103516 760.48339844 C258.04116559 758.20345982 260.98941411 755.88362881 263.9375 753.5625 C264.51072998 753.11261719 265.08395996 752.66273438 265.67456055 752.19921875 C269.99303019 748.80643581 274.28046462 745.37608753 278.5625 741.9375 C283.71606562 737.80113777 288.91341194 733.73047087 294.16088867 729.71411133 C302.3402495 723.45079415 310.4296501 717.07341263 318.45727539 710.61694336 C324.38877694 705.8469202 330.37417453 701.16400152 336.4375 696.5625 C342.81644958 691.72006984 349.06423312 686.74147209 355.25927734 681.66650391 C359.31005706 678.35423642 363.40127375 675.10978692 367.5625 671.9375 C372.23682596 668.37116242 376.85333721 664.74393535 381.4375 661.0625 C389.15555378 654.86430912 396.93637256 648.7488714 404.72949219 642.64550781 C411.98167868 636.96401484 419.20556675 631.25004628 426.38989258 625.48291016 C430.03040514 622.56389386 433.69046515 619.67260986 437.37133789 616.8046875 C444.18454708 611.49298328 450.81656286 606.00268323 457.37792969 600.38378906 C459.58403081 598.501763 461.80548618 596.63826741 464.02612305 594.7734375 C466.19127152 592.95095838 468.34716968 591.1178514 470.49951172 589.28027344 C471.90420491 588.081736 473.31327443 586.88833298 474.72265625 585.6953125 C493.53018313 569.35863536 505.10738493 547.75361749 508 523 C509.45254561 496.91037039 503.97821165 473.45991865 487 453 C486.56429688 452.41863281 486.12859375 451.83726562 485.6796875 451.23828125 C470.80443399 432.13204246 444.55320247 423.32234174 421.4696312 420.30170345 C409.61862365 418.85392052 397.82101687 418.82903743 385.90136719 418.79467773 C383.78139563 418.7850841 381.66142592 418.77507319 379.54145813 418.76467896 C373.81715663 418.7377846 368.09284701 418.71669187 362.36851788 418.69667697 C356.37475313 418.67472132 350.38101295 418.64737975 344.38726807 418.62062073 C333.05103005 418.57082279 321.7147783 418.52583641 310.37851357 418.48259836 C295.05008006 418.42385378 279.72167891 418.35763666 264.39327431 418.29184818 C240.26220473 418.18847542 216.13110711 418.09505213 192 418 C192 370.81 192 323.62 192 275 C211.80966797 274.92652344 211.80966797 274.92652344 232.01953125 274.8515625 C240.40951158 274.81615755 248.7994852 274.78026555 257.18945312 274.7421875 C270.49257852 274.68190089 283.79569138 274.62354527 297.09887695 274.578125 C306.79001989 274.54502793 316.48110742 274.50510104 326.17218894 274.45720994 C331.29635224 274.43211973 336.42047962 274.41028842 341.54468727 274.39665604 C346.3832846 274.38367505 351.2217576 274.36145419 356.06028557 274.33261681 C357.82126634 274.32366459 359.58226706 274.31788036 361.34326935 274.31578636 C370.3319859 274.30320143 379.21617153 274.02324358 388.16288757 273.10897827 C388.92280717 273.03225565 389.68272676 272.95553302 390.46567422 272.87648547 C409.5212505 270.73323633 429.45735254 262.67269256 441.9140625 247.69921875 C450.65773675 236.03478522 455.14816182 221.48124903 456 207 C456.061875 205.9790625 456.061875 205.9790625 456.125 204.9375 C456.65086762 187.05800086 451.01536878 169.62483507 438.875 156.3125 C420.77754736 139.53925121 394.66179939 134.8675595 370.84434509 134.84178162 C369.86068626 134.83684364 368.87702742 134.83190566 367.86356074 134.82681805 C364.58864821 134.8115385 361.31375513 134.80310846 358.03881836 134.79467773 C355.68283926 134.7850917 353.32686186 134.7750812 350.97088623 134.76467896 C344.58940217 134.73770246 338.20791077 134.7166537 331.82640147 134.69667697 C325.82860875 134.67699321 319.83083462 134.65286078 313.83305842 134.62875474 C301.95846094 134.58117303 290.08385188 134.53788353 278.20922852 134.49731445 C266.67862041 134.45791145 255.14802255 134.41647382 243.61743164 134.37231445 C242.55014049 134.36822804 242.55014049 134.36822804 241.46128791 134.36405908 C237.89153046 134.35037881 234.32177317 134.3366587 230.75201595 134.32291877 C201.16803225 134.20910211 171.58402571 134.10233211 142 134 C142.00037972 134.92641499 142.00075944 135.85282998 142.00115067 136.80731815 C142.02354282 191.65313404 142.04067423 246.49894951 142.05106533 301.34476906 C142.05231611 307.92279852 142.05361043 314.50082797 142.05493164 321.07885742 C142.05532511 323.04329786 142.05532511 323.04329786 142.05572652 325.04742397 C142.06008378 346.28282271 142.06797163 367.51821876 142.0771528 388.75361591 C142.08648778 410.52556948 142.09205528 432.29752165 142.09408849 454.06947714 C142.09546405 467.51561696 142.09981636 480.96174916 142.10791647 494.40788663 C142.11318202 503.614881 142.11480473 512.82187141 142.11350138 522.02886718 C142.1128577 527.34937137 142.11387888 532.66986222 142.11920547 537.99036407 C142.12403816 542.8527181 142.12433952 547.71504968 142.12089889 552.57740469 C142.12047307 554.3445714 142.12176991 556.11173947 142.12488318 557.8789035 C142.12884504 560.26481181 142.12676473 562.65063706 142.12304783 565.03654385 C142.12698835 566.08665828 142.12698835 566.08665828 142.13100848 567.15798715 C142.1141458 571.8858542 142.1141458 571.8858542 141 573 C94.47 573 47.94 573 0 573 C0 383.91 0 194.82 0 0 Z " fill="#242423" transform="translate(313,117)"/>
<path d="M0 0 C99.39730176 0 99.39730176 0 117.6875 17.0625 C130.21998079 30.13208711 136.17600727 46.58939399 136.12304783 64.57771873 C136.12420167 65.54026131 136.12535552 66.50280388 136.12654433 67.49451441 C136.12919959 70.73271886 136.12469775 73.97087399 136.12025452 77.20907593 C136.12069044 79.54889138 136.12156574 81.88870679 136.12284368 84.22852194 C136.12484939 89.9926523 136.12219575 95.7567675 136.11760301 101.52089607 C136.11236635 108.42469776 136.11294736 115.32849579 136.11374746 122.23229898 C136.11506146 134.97329244 136.11171959 147.71428072 136.10573006 160.45527267 C136.09981432 173.07160849 136.09596437 185.68794214 136.09487724 198.30427933 C136.0948085 199.08853917 136.09473976 199.87279901 136.09466894 200.6808243 C136.09433061 204.66363596 136.09402923 208.64644763 136.09374207 212.6292593 C136.0916413 240.8441496 136.08490295 269.05903707 136.07543945 297.27392578 C136.06625604 324.68538397 136.05918883 352.09684137 136.05493164 379.50830078 C136.054661 381.23183485 136.05439029 382.95536892 136.05411953 384.67890298 C136.05193078 398.68319657 136.04988819 412.68749018 136.04788104 426.6917838 C136.03849266 491.46119187 136.0184225 556.23059258 136 621 C281.86 621 427.72 621 578 621 C578 621.66 578 622.32 578 623 C576.0859375 624.55859375 576.0859375 624.55859375 573.375 626.4375 C568.88505782 629.62242698 564.50462006 632.8972482 560.1875 636.3125 C559.59662598 636.77930176 559.00575195 637.24610352 558.39697266 637.72705078 C557.19110667 638.6807308 555.9857036 639.63499642 554.78076172 640.58984375 C551.94245669 642.83745135 549.09653115 645.07532554 546.25 647.3125 C545.681604 647.75972412 545.11320801 648.20694824 544.52758789 648.66772461 C541.254448 651.24009017 537.97182036 653.79963561 534.6796875 656.34765625 C527.28497276 662.07282861 519.92745455 667.82975114 512.6875 673.75 C505.89255871 679.30631914 498.98529871 684.6849097 492 690 C484.45622245 695.75782775 476.98548055 701.59073584 469.58862305 707.53637695 C465.04935179 711.17842512 460.46072885 714.74866307 455.83935547 718.28564453 C446.94700085 725.09525187 438.17123867 732.05106491 429.4375 739.0625 C424.28753685 743.19584017 419.09445728 747.26438212 413.85009766 751.27709961 C409.81577764 754.36562458 405.80743076 757.48569708 401.8125 760.625 C401.27874756 761.04402588 400.74499512 761.46305176 400.19506836 761.89477539 C395.10541552 765.89978601 390.05777773 769.95377782 385 774 C257.95 774 130.9 774 0 774 C0 518.58 0 263.16 0 0 Z " fill="#242423" transform="translate(122,117)"/>
</svg>
