<?xml version="1.0" encoding="UTF-8"?>
<svg version="1.1" xmlns="http://www.w3.org/2000/svg" width="3000" height="1024">
<path d="M0 0 C105.6515625 -0.0928125 105.6515625 -0.0928125 213.4375 -0.1875 C235.65892334 -0.21481201 257.88034668 -0.24212402 280.77514648 -0.27026367 C307.95715332 -0.28381348 307.95715332 -0.28381348 320.69129944 -0.28633118 C329.56522524 -0.28912063 338.43909391 -0.30009051 347.31300354 -0.31672668 C357.56398549 -0.33591585 367.81491295 -0.34448619 378.06591297 -0.34033485 C383.30199993 -0.33853909 388.53796533 -0.34124796 393.77402961 -0.35764539 C453.81005292 -0.5363354 508.0622289 9.49291969 553 52 C553.87011719 52.81597656 554.74023438 53.63195312 555.63671875 54.47265625 C566.77954641 65.23064527 575.18803814 77.71019777 583 91 C583.36367676 91.61601074 583.72735352 92.23202148 584.10205078 92.86669922 C595.99581271 113.28972098 602.69656992 136.69310058 606 160 C606.14356934 160.9895166 606.14356934 160.9895166 606.29003906 161.99902344 C612.1970381 207.83648912 599.93761761 254.50055984 572.97265625 291.8046875 C567.70981821 298.54198118 561.85597397 304.78014325 556 311 C555.29359375 311.77214844 554.5871875 312.54429687 553.859375 313.33984375 C546.27285265 321.34623089 537.15893745 327.8940417 528 334 C528.62342285 334.28609131 529.2468457 334.57218262 529.88916016 334.86694336 C547.46555954 342.97825573 562.86640371 351.947034 578 364 C578.88945313 364.68320312 579.77890625 365.36640625 580.6953125 366.0703125 C593.58514556 376.18979338 605.04714971 388.10652189 614.74853516 401.29980469 C615.99732441 402.99636504 617.26887103 404.67395975 618.54296875 406.3515625 C654.4136094 454.28526415 664.62993259 516.97472141 656.54345703 575.29248047 C649.55690989 622.33254664 631.24550567 666.53538174 598.4453125 701.34375 C595.99344995 703.9417153 595.99344995 703.9417153 593.90625 706.640625 C592.17549776 708.78278555 590.47400135 710.48147971 588.375 712.25 C586.15593566 714.13640753 583.97228836 716.02619734 581.85546875 718.02734375 C528.8154797 767.99516989 454.07180919 774.40530913 385.00601673 774.20278788 C379.9239184 774.19008366 374.84181635 774.18909481 369.75970459 774.18673706 C360.18413704 774.18057906 350.60861646 774.16424718 341.03306937 774.14403808 C330.11123182 774.12149965 319.18939175 774.11064105 308.26753664 774.10064721 C285.84499863 774.07987426 263.42250197 774.04481177 241 774 C242.87056766 769.81772432 245.65481238 767.63983498 249.25 764.9375 C250.52747816 763.95590407 251.80481816 762.97412831 253.08203125 761.9921875 C254.06163818 761.24533691 254.06163818 761.24533691 255.06103516 760.48339844 C258.04116559 758.20345982 260.98941411 755.88362881 263.9375 753.5625 C264.51072998 753.11261719 265.08395996 752.66273438 265.67456055 752.19921875 C269.99303019 748.80643581 274.28046462 745.37608753 278.5625 741.9375 C283.71606562 737.80113777 288.91341194 733.73047087 294.16088867 729.71411133 C302.3402495 723.45079415 310.4296501 717.07341263 318.45727539 710.61694336 C324.38877694 705.8469202 330.37417453 701.16400152 336.4375 696.5625 C342.81644958 691.72006984 349.06423312 686.74147209 355.25927734 681.66650391 C359.31005706 678.35423642 363.40127375 675.10978692 367.5625 671.9375 C372.23682596 668.37116242 376.85333721 664.74393535 381.4375 661.0625 C389.15555378 654.86430912 396.93637256 648.7488714 404.72949219 642.64550781 C411.98167868 636.96401484 419.20556675 631.25004628 426.38989258 625.48291016 C430.03040514 622.56389386 433.69046515 619.67260986 437.37133789 616.8046875 C444.18454708 611.49298328 450.81656286 606.00268323 457.37792969 600.38378906 C459.58403081 598.501763 461.80548618 596.63826741 464.02612305 594.7734375 C466.19127152 592.95095838 468.34716968 591.1178514 470.49951172 589.28027344 C471.90420491 588.081736 473.31327443 586.88833298 474.72265625 585.6953125 C493.53018313 569.35863536 505.10738493 547.75361749 508 523 C509.45254561 496.91037039 503.97821165 473.45991865 487 453 C486.56429688 452.41863281 486.12859375 451.83726562 485.6796875 451.23828125 C470.80443399 432.13204246 444.55320247 423.32234174 421.4696312 420.30170345 C409.61862365 418.85392052 397.82101687 418.82903743 385.90136719 418.79467773 C383.78139563 418.7850841 381.66142592 418.77507319 379.54145813 418.76467896 C373.81715663 418.7377846 368.09284701 418.71669187 362.36851788 418.69667697 C356.37475313 418.67472132 350.38101295 418.64737975 344.38726807 418.62062073 C333.05103005 418.57082279 321.7147783 418.52583641 310.37851357 418.48259836 C295.05008006 418.42385378 279.72167891 418.35763666 264.39327431 418.29184818 C240.26220473 418.18847542 216.13110711 418.09505213 192 418 C192 370.81 192 323.62 192 275 C211.80966797 274.92652344 211.80966797 274.92652344 232.01953125 274.8515625 C240.40951158 274.81615755 248.7994852 274.78026555 257.18945312 274.7421875 C270.49257852 274.68190089 283.79569138 274.62354527 297.09887695 274.578125 C306.79001989 274.54502793 316.48110742 274.50510104 326.17218894 274.45720994 C331.29635224 274.43211973 336.42047962 274.41028842 341.54468727 274.39665604 C346.3832846 274.38367505 351.2217576 274.36145419 356.06028557 274.33261681 C357.82126634 274.32366459 359.58226706 274.31788036 361.34326935 274.31578636 C370.3319859 274.30320143 379.21617153 274.02324358 388.16288757 273.10897827 C388.92280717 273.03225565 389.68272676 272.95553302 390.46567422 272.87648547 C409.5212505 270.73323633 429.45735254 262.67269256 441.9140625 247.69921875 C450.65773675 236.03478522 455.14816182 221.48124903 456 207 C456.061875 205.9790625 456.061875 205.9790625 456.125 204.9375 C456.65086762 187.05800086 451.01536878 169.62483507 438.875 156.3125 C420.77754736 139.53925121 394.66179939 134.8675595 370.84434509 134.84178162 C369.86068626 134.83684364 368.87702742 134.83190566 367.86356074 134.82681805 C364.58864821 134.8115385 361.31375513 134.80310846 358.03881836 134.79467773 C355.68283926 134.7850917 353.32686186 134.7750812 350.97088623 134.76467896 C344.58940217 134.73770246 338.20791077 134.7166537 331.82640147 134.69667697 C325.82860875 134.67699321 319.83083462 134.65286078 313.83305842 134.62875474 C301.95846094 134.58117303 290.08385188 134.53788353 278.20922852 134.49731445 C266.67862041 134.45791145 255.14802255 134.41647382 243.61743164 134.37231445 C242.55014049 134.36822804 242.55014049 134.36822804 241.46128791 134.36405908 C237.89153046 134.35037881 234.32177317 134.3366587 230.75201595 134.32291877 C201.16803225 134.20910211 171.58402571 134.10233211 142 134 C142.00037972 134.92641499 142.00075944 135.85282998 142.00115067 136.80731815 C142.02354282 191.65313404 142.04067423 246.49894951 142.05106533 301.34476906 C142.05231611 307.92279852 142.05361043 314.50082797 142.05493164 321.07885742 C142.05532511 323.04329786 142.05532511 323.04329786 142.05572652 325.04742397 C142.06008378 346.28282271 142.06797163 367.51821876 142.0771528 388.75361591 C142.08648778 410.52556948 142.09205528 432.29752165 142.09408849 454.06947714 C142.09546405 467.51561696 142.09981636 480.96174916 142.10791647 494.40788663 C142.11318202 503.614881 142.11480473 512.82187141 142.11350138 522.02886718 C142.1128577 527.34937137 142.11387888 532.66986222 142.11920547 537.99036407 C142.12403816 542.8527181 142.12433952 547.71504968 142.12089889 552.57740469 C142.12047307 554.3445714 142.12176991 556.11173947 142.12488318 557.8789035 C142.12884504 560.26481181 142.12676473 562.65063706 142.12304783 565.03654385 C142.12698835 566.08665828 142.12698835 566.08665828 142.13100848 567.15798715 C142.1141458 571.8858542 142.1141458 571.8858542 141 573 C94.47 573 47.94 573 0 573 C0 383.91 0 194.82 0 0 Z " fill="#242423" transform="translate(313,117)"/>
<path d="M0 0 C99.39730176 0 99.39730176 0 117.6875 17.0625 C130.21998079 30.13208711 136.17600727 46.58939399 136.12304783 64.57771873 C136.12420167 65.54026131 136.12535552 66.50280388 136.12654433 67.49451441 C136.12919959 70.73271886 136.12469775 73.97087399 136.12025452 77.20907593 C136.12069044 79.54889138 136.12156574 81.88870679 136.12284368 84.22852194 C136.12484939 89.9926523 136.12219575 95.7567675 136.11760301 101.52089607 C136.11236635 108.42469776 136.11294736 115.32849579 136.11374746 122.23229898 C136.11506146 134.97329244 136.11171959 147.71428072 136.10573006 160.45527267 C136.09981432 173.07160849 136.09596437 185.68794214 136.09487724 198.30427933 C136.0948085 199.08853917 136.09473976 199.87279901 136.09466894 200.6808243 C136.09433061 204.66363596 136.09402923 208.64644763 136.09374207 212.6292593 C136.0916413 240.8441496 136.08490295 269.05903707 136.07543945 297.27392578 C136.06625604 324.68538397 136.05918883 352.09684137 136.05493164 379.50830078 C136.054661 381.23183485 136.05439029 382.95536892 136.05411953 384.67890298 C136.05193078 398.68319657 136.04988819 412.68749018 136.04788104 426.6917838 C136.03849266 491.46119187 136.0184225 556.23059258 136 621 C281.86 621 427.72 621 578 621 C578 621.66 578 622.32 578 623 C576.0859375 624.55859375 576.0859375 624.55859375 573.375 626.4375 C568.88505782 629.62242698 564.50462006 632.8972482 560.1875 636.3125 C559.59662598 636.77930176 559.00575195 637.24610352 558.39697266 637.72705078 C557.19110667 638.6807308 555.9857036 639.63499642 554.78076172 640.58984375 C551.94245669 642.83745135 549.09653115 645.07532554 546.25 647.3125 C545.681604 647.75972412 545.11320801 648.20694824 544.52758789 648.66772461 C541.254448 651.24009017 537.97182036 653.79963561 534.6796875 656.34765625 C527.28497276 662.07282861 519.92745455 667.82975114 512.6875 673.75 C505.89255871 679.30631914 498.98529871 684.6849097 492 690 C484.45622245 695.75782775 476.98548055 701.59073584 469.58862305 707.53637695 C465.04935179 711.17842512 460.46072885 714.74866307 455.83935547 718.28564453 C446.94700085 725.09525187 438.17123867 732.05106491 429.4375 739.0625 C424.28753685 743.19584017 419.09445728 747.26438212 413.85009766 751.27709961 C409.81577764 754.36562458 405.80743076 757.48569708 401.8125 760.625 C401.27874756 761.04402588 400.74499512 761.46305176 400.19506836 761.89477539 C395.10541552 765.89978601 390.05777773 769.95377782 385 774 C257.95 774 130.9 774 0 774 C0 518.58 0 263.16 0 0 Z " fill="#242423" transform="translate(122,117)"/>
<path d="M0 0 C87.37777778 0 87.37777778 0 100 10 C109.45208204 19.63385285 112.30203317 30.2499597 112.31469727 43.40795898 C112.14935528 52.55851258 109.71652676 60.36582648 103.34765625 67.140625 C98.4487097 71.02065588 92.68336035 73.47756545 87 76 C88.16015625 76.41958984 88.16015625 76.41958984 89.34375 76.84765625 C100.86147803 81.28084117 106.58436877 86.00878275 111.87109375 97.23046875 C115.84553685 106.98091912 115.63233412 121.13296767 111.97265625 130.9375 C106.52758617 142.48367271 98.88987494 149.25286822 87 154 C81.51385283 155.58397789 76.56280166 156.28494862 70.83984375 156.22705078 C69.66380333 156.22741239 69.66380333 156.22741239 68.46400452 156.2277813 C65.95504953 156.22630222 63.44640102 156.21113489 60.9375 156.1953125 C59.37695458 156.19236769 57.81640717 156.19032995 56.25585938 156.18920898 C50.5038759 156.17877237 44.75193486 156.15084985 39 156.125 C26.13 156.08375 13.26 156.0425 0 156 C0 104.52 0 53.04 0 0 Z M30 29 C30 39.56 30 50.12 30 61 C35.40858151 61.09219173 40.81440123 61.17171712 46.22314453 61.21972656 C48.06015293 61.23975373 49.89709829 61.26698382 51.73388672 61.30175781 C54.38525002 61.35067065 57.03576541 61.37305763 59.6875 61.390625 C60.49928711 61.41127014 61.31107422 61.43191528 62.14746094 61.45318604 C67.87123737 61.45540249 72.23260559 60.2435033 77 57 C80.82777114 52.68148897 82.0658899 48.6555495 82 43 C81.20376664 37.22730813 79.11723932 34.68865552 74.75390625 31.1640625 C71.85879953 29.24258855 69.36607636 28.87581679 65.98754883 28.88647461 C65.18694534 28.88655014 64.38634186 28.88662567 63.56147766 28.88670349 C62.27227669 28.89444542 62.27227669 28.89444542 60.95703125 28.90234375 C60.0734343 28.9037587 59.18983734 28.90517365 58.27946472 28.90663147 C55.45710872 28.91222931 52.63483203 28.92478139 49.8125 28.9375 C47.89908969 28.94251528 45.98567813 28.94707814 44.07226562 28.95117188 C39.38145527 28.96134717 34.69081642 28.98092302 30 29 Z M30 90 C30 102.21 30 114.42 30 127 C35.55097386 127.09217484 41.09925927 127.1717064 46.65039062 127.21972656 C48.53589916 127.23975767 50.42134623 127.26699073 52.30664062 127.30175781 C55.02749862 127.35065272 57.74753056 127.37305382 60.46875 127.390625 C61.71924133 127.42159271 61.71924133 127.42159271 62.99499512 127.45318604 C69.986313 127.4558256 75.3190562 125.61039265 80.375 120.6875 C83.66744839 115.24229689 84.44631789 110.34371997 83.5390625 104.140625 C82.44352804 99.79024179 79.89995903 96.98177349 76.9375 93.75 C67.94292404 88.39152921 55.90856673 89.76171312 45.8125 89.875 C37.9853125 89.936875 37.9853125 89.936875 30 90 Z " fill="#232322" transform="translate(1117,534)"/>
<path d="M0 0 C6.1879008 5.67515572 9.87428031 13.03099915 11.63671875 21.21484375 C11.70604315 23.97672778 11.73066872 26.70503944 11.69921875 29.46484375 C11.67859375 32.02234375 11.65796875 34.57984375 11.63671875 37.21484375 C1.73671875 37.21484375 -8.16328125 37.21484375 -18.36328125 37.21484375 C-19.11328125 30.08984375 -19.11328125 30.08984375 -19.31933594 27.88232422 C-19.89902349 23.04678578 -21.3368537 19.99227369 -24.36328125 16.21484375 C-28.84167115 13.22925048 -33.11641596 13.50175047 -38.36328125 14.21484375 C-42.29182823 15.90750427 -44.49737977 18.95215196 -46.23828125 22.77734375 C-49.6549787 33.66167335 -46.84978848 43.4271879 -41.8203125 53.21875 C-35.75127061 64.09302871 -27.71955199 73.06543545 -19.36328125 82.21484375 C-17.04242898 84.80434773 -14.72405749 87.39605211 -12.40625 89.98828125 C-10.44619946 92.124474 -8.42923211 94.181391 -6.36328125 96.21484375 C-3.57929525 86.58225219 -2.40602852 77.16104846 -1.36328125 67.21484375 C8.20671875 67.21484375 17.77671875 67.21484375 27.63671875 67.21484375 C27.63671875 83.51418171 27.63671875 83.51418171 26.38671875 89.83984375 C26.25249512 90.55221191 26.11827148 91.26458008 25.97998047 91.99853516 C23.93414961 102.33940719 20.15228838 111.72301872 15.63671875 121.21484375 C16.30876343 121.92447266 16.30876343 121.92447266 16.99438477 122.6484375 C19.0642083 124.83578288 21.13172105 127.02529993 23.19921875 129.21484375 C23.90369141 129.95863281 24.60816406 130.70242188 25.33398438 131.46875 C37.94910386 144.83961397 37.94910386 144.83961397 39.63671875 148.21484375 C34.7805385 148.38875654 29.92619491 148.51530697 25.06762695 148.59936523 C23.41756596 148.63442479 21.76772021 148.68208935 20.1184082 148.74291992 C6.3173265 149.23894189 6.3173265 149.23894189 2.03930664 146.63208008 C0.16796875 144.69921875 0.16796875 144.69921875 -1.22460938 142.74902344 C-1.60037109 142.24274414 -1.97613281 141.73646484 -2.36328125 141.21484375 C-5.2002202 140.99661768 -6.58748941 141.81357211 -9.0625 143.09375 C-9.69800781 143.42246094 -10.33351563 143.75117188 -10.98828125 144.08984375 C-11.67019531 144.44433594 -12.35210938 144.79882812 -13.0546875 145.1640625 C-29.71639729 152.74781873 -51.36026905 152.48493502 -68.36328125 146.21484375 C-78.13464191 141.43563103 -85.61618523 134.55682877 -89.36328125 124.21484375 C-93.41429704 109.6624823 -94.31707716 94.5237808 -86.73828125 80.83984375 C-82.29138395 74.10850545 -76.30953376 69.20680258 -69.36328125 65.21484375 C-69.70101562 64.44140625 -70.03875 63.66796875 -70.38671875 62.87109375 C-70.83273438 61.82953125 -71.27875 60.78796875 -71.73828125 59.71484375 C-72.17914062 58.69390625 -72.62 57.67296875 -73.07421875 56.62109375 C-78.03294194 43.51804339 -79.11844212 25.76282858 -73.6875 12.65234375 C-67.94298625 2.07837154 -60.35432231 -4.10351882 -49.07421875 -8.0234375 C-32.53576573 -12.67040917 -13.82992209 -10.44673454 0 0 Z M-56.36328125 85.21484375 C-61.86393108 91.95313979 -63.83385159 98.14049522 -63.609375 106.85546875 C-63.09808287 111.75738055 -61.11417645 114.44607009 -57.73828125 117.90234375 C-50.54335728 123.3690752 -42.136254 124.1000855 -33.36328125 123.21484375 C-29.93664315 122.43545156 -26.65602757 121.43869637 -23.36328125 120.21484375 C-23.9427313 116.93040335 -24.88188541 115.33990479 -27.27734375 113.04296875 C-27.8700708 112.46506592 -28.46279785 111.88716309 -29.07348633 111.29174805 C-29.70536865 110.68886963 -30.33725098 110.08599121 -30.98828125 109.46484375 C-32.27789135 108.20762371 -33.56567318 106.94852541 -34.8515625 105.6875 C-35.46596191 105.08566895 -36.08036133 104.48383789 -36.71337891 103.86376953 C-39.18655079 101.3920615 -41.44381292 98.76315345 -43.70703125 96.1015625 C-47.05039258 92.29296928 -50.55725725 88.56352474 -54.36328125 85.21484375 C-55.02328125 85.21484375 -55.68328125 85.21484375 -56.36328125 85.21484375 Z " fill="#232322" transform="translate(2191.36328125,320.78515625)"/>
<path d="M0 0 C3.7074297 2.63440737 6.47256953 5.20885429 9 9 C9.33 5.37 9.66 1.74 10 -2 C19.9 -2 29.8 -2 40 -2 C40.06790206 13.17802596 40.12308907 28.35598272 40.15543652 43.53412247 C40.17085985 50.58269974 40.1918618 57.63117545 40.22631836 64.6796875 C40.25958366 71.48780015 40.27687701 78.29580744 40.28463173 85.10399628 C40.29015487 87.69538783 40.30094003 90.28677393 40.31719017 92.87812042 C40.3391148 96.52075949 40.3419606 100.16296914 40.34057617 103.80566406 C40.351362 104.8659079 40.36214783 105.92615173 40.3732605 107.01852417 C40.31844712 120.43434972 37.00159485 133.1518043 27.5 142.9375 C22.84210513 147.45598605 19.06393938 150.35660092 12.41870117 150.43579102 C11.32373825 150.45493057 10.22877533 150.47407013 9.10063171 150.49378967 C7.92660294 150.49712814 6.75257416 150.50046661 5.54296875 150.50390625 C4.32603836 150.51389145 3.10910797 150.52387665 1.8553009 150.53416443 C-0.71760664 150.54934118 -3.29057313 150.55639036 -5.86352539 150.5559082 C-9.7882692 150.56245955 -13.71047036 150.61692572 -17.63476562 150.67382812 C-20.13801221 150.68263253 -22.64127077 150.68858518 -25.14453125 150.69140625 C-26.89646538 150.72374107 -26.89646538 150.72374107 -28.68379211 150.75672913 C-36.27656955 150.69327453 -40.56934154 149.35534622 -46 144 C-46.78531853 143.257145 -46.78531853 143.257145 -47.58650208 142.49928284 C-48.75481333 141.36338438 -49.88320953 140.18658988 -51 139 C-47.47222991 130.77472553 -38.69267574 124.67145001 -32 119 C-28.61165479 120.27659485 -25.61819357 121.79893459 -22.5 123.625 C-15.79947628 126.99526342 -8.74991135 127.3474392 -1.53515625 125.30078125 C3.12931079 123.24216172 5.65144552 120.60316677 8 116 C8.93233271 112.34427438 9.10785175 108.9516956 9.0625 105.1875 C9.05347656 104.21167969 9.04445313 103.23585938 9.03515625 102.23046875 C9.02355469 101.49441406 9.01195313 100.75835938 9 100 C8.360625 100.886875 7.72125 101.77375 7.0625 102.6875 C2.71636727 107.91276499 -3.31943974 111.01517577 -10 112 C-21.2619134 112.83899641 -31.2075386 111.50101177 -40 104.01171875 C-52.43022452 91.50866088 -54.23853025 74.64926311 -54.2734375 57.7890625 C-54.26570313 56.53867187 -54.25796875 55.28828125 -54.25 54 C-54.25773437 52.74960937 -54.26546875 51.49921875 -54.2734375 50.2109375 C-54.24037256 34.24057373 -52.80882224 16.99668987 -41 5 C-29.39698351 -4.79562354 -13.52002384 -7.63566113 0 0 Z M-18.8125 29.875 C-23.69124589 36.84463698 -23.34036407 43.45458809 -23.31567383 51.66455078 C-23.31251937 53.86151004 -23.33597863 56.05711369 -23.36132812 58.25390625 C-23.36360215 59.66666499 -23.36430414 61.0794273 -23.36328125 62.4921875 C-23.36626221 63.76433105 -23.36924316 65.03647461 -23.37231445 66.34716797 C-22.82152122 71.7510816 -21.17804883 75.56723791 -17.6875 79.8125 C-13.24418018 83.42915567 -9.63197593 84.21614349 -4 83.9375 C1.21312965 83.24764224 3.53526981 81.97176388 7 78 C10.51605285 71.08537579 10.46112597 64.25877344 10.39111328 56.64624023 C10.375059 54.57012959 10.39100404 52.49597265 10.41015625 50.41992188 C10.5360813 37.98503786 10.5360813 37.98503786 4.625 27.5625 C-3.47180195 22.74297503 -12.0829493 22.19539509 -18.8125 29.875 Z " fill="#232322" transform="translate(2332,580)"/>
<path d="M0 0 C9.9 0 19.8 0 30 0 C30 51.48 30 102.96 30 156 C20.1 156 10.2 156 0 156 C-0.33 152.7 -0.66 149.4 -1 146 C-1.639375 146.886875 -2.27875 147.77375 -2.9375 148.6875 C-7.28363273 153.91276499 -13.31943974 157.01517577 -20 158 C-31.2619134 158.83899641 -41.2075386 157.50101177 -50 150.01171875 C-62.43022452 137.50866088 -64.23853025 120.64926311 -64.2734375 103.7890625 C-64.26570313 102.53867187 -64.25796875 101.28828125 -64.25 100 C-64.25773437 98.74960937 -64.26546875 97.49921875 -64.2734375 96.2109375 C-64.24037256 80.24057373 -62.80882224 62.99668987 -51 51 C-42.75717809 44.04115612 -33.67052594 41.33602748 -22.95703125 41.65234375 C-14.96839319 42.59156276 -8.47786507 46.16420625 -3 52 C-2.34 52.99 -1.68 53.98 -1 55 C-0.67 36.85 -0.34 18.7 0 0 Z M-28.8125 75.875 C-33.69124589 82.84463698 -33.34036407 89.45458809 -33.31567383 97.66455078 C-33.31251937 99.86151004 -33.33597863 102.05711369 -33.36132812 104.25390625 C-33.36360215 105.66666499 -33.36430414 107.0794273 -33.36328125 108.4921875 C-33.36626221 109.76433105 -33.36924316 111.03647461 -33.37231445 112.34716797 C-32.82152122 117.7510816 -31.17804883 121.56723791 -27.6875 125.8125 C-23.24418018 129.42915567 -19.63197593 130.21614349 -14 129.9375 C-8.78687035 129.24764224 -6.46473019 127.97176388 -3 124 C0.51605285 117.08537579 0.46112597 110.25877344 0.39111328 102.64624023 C0.375059 100.57012959 0.39100404 98.49597265 0.41015625 96.41992188 C0.5360813 83.98503786 0.5360813 83.98503786 -5.375 73.5625 C-13.47180195 68.74297503 -22.0829493 68.19539509 -28.8125 75.875 Z " fill="#232322" transform="translate(1651,534)"/>
<path d="M0 0 C9.9 0 19.8 0 30 0 C30 51.48 30 102.96 30 156 C20.1 156 10.2 156 0 156 C-0.33 152.7 -0.66 149.4 -1 146 C-1.639375 146.886875 -2.27875 147.77375 -2.9375 148.6875 C-7.28363273 153.91276499 -13.31943974 157.01517577 -20 158 C-31.2619134 158.83899641 -41.2075386 157.50101177 -50 150.01171875 C-62.43022452 137.50866088 -64.23853025 120.64926311 -64.2734375 103.7890625 C-64.26570313 102.53867187 -64.25796875 101.28828125 -64.25 100 C-64.25773437 98.74960937 -64.26546875 97.49921875 -64.2734375 96.2109375 C-64.24037256 80.24057373 -62.80882224 62.99668987 -51 51 C-42.75717809 44.04115612 -33.67052594 41.33602748 -22.95703125 41.65234375 C-14.96839319 42.59156276 -8.47786507 46.16420625 -3 52 C-2.34 52.99 -1.68 53.98 -1 55 C-0.67 36.85 -0.34 18.7 0 0 Z M-28.8125 75.875 C-33.69124589 82.84463698 -33.34036407 89.45458809 -33.31567383 97.66455078 C-33.31251937 99.86151004 -33.33597863 102.05711369 -33.36132812 104.25390625 C-33.36360215 105.66666499 -33.36430414 107.0794273 -33.36328125 108.4921875 C-33.36626221 109.76433105 -33.36924316 111.03647461 -33.37231445 112.34716797 C-32.82152122 117.7510816 -31.17804883 121.56723791 -27.6875 125.8125 C-23.24418018 129.42915567 -19.63197593 130.21614349 -14 129.9375 C-8.78687035 129.24764224 -6.46473019 127.97176388 -3 124 C0.51605285 117.08537579 0.46112597 110.25877344 0.39111328 102.64624023 C0.375059 100.57012959 0.39100404 98.49597265 0.41015625 96.41992188 C0.5360813 83.98503786 0.5360813 83.98503786 -5.375 73.5625 C-13.47180195 68.74297503 -22.0829493 68.19539509 -28.8125 75.875 Z " fill="#232322" transform="translate(1871,313)"/>
<path d="M0 0 C9.9 0 19.8 0 30 0 C30.33 17.82 30.66 35.64 31 54 C33.31 51.69 35.62 49.38 38 47 C47.36169756 41.69038049 56.58573192 40.30449832 67.1875 43.125 C76.79945515 46.46761902 83.17413148 52.03767274 88 61 C91.64880085 69.9057358 93.15897802 78.03570983 93.23828125 87.5859375 C93.246353 88.51991364 93.25442474 89.45388977 93.26274109 90.41616821 C93.27655195 92.39477706 93.28728747 94.37340942 93.29516602 96.35205078 C93.30661976 98.34951905 93.32696509 100.34695834 93.35668945 102.34423828 C93.60273796 118.9023406 93.1370468 134.62196207 82 148 C73.52117019 156.128327 63.85520503 158.39429022 52.35546875 158.27734375 C44.18272718 157.60183193 37.56725282 153.9588333 32 148 C31.505 147.01 31.505 147.01 31 146 C30.67 149.3 30.34 152.6 30 156 C20.1 156 10.2 156 0 156 C0 104.52 0 53.04 0 0 Z M33.125 75.9375 C29.74815448 80.80413031 29.83086164 85.02913519 29.796875 90.8359375 C29.79117493 91.59290924 29.78547485 92.34988098 29.77960205 93.12979126 C29.77017486 94.72844047 29.76362715 96.32710891 29.75976562 97.92578125 C29.75006091 100.35972277 29.71901752 102.79281896 29.6875 105.2265625 C29.68096898 106.78384918 29.6757189 108.34114187 29.671875 109.8984375 C29.6595282 110.62050385 29.6471814 111.34257019 29.63446045 112.08651733 C29.66186855 118.36398307 31.37421119 122.21559765 35.5625 126.8125 C39.59177664 129.90963056 44.04006952 130.25980588 49 130 C54.74812672 128.39806304 57.6822154 125.92927997 61 121 C63.66899395 114.22486151 63.33126306 107.32251157 63.3125 100.125 C63.32861328 98.89652344 63.34472656 97.66804687 63.36132812 96.40234375 C63.36591544 87.84241445 63.14005638 79.92642576 56.9375 73.5 C49.39230777 67.77331076 39.39318489 68.90141781 33.125 75.9375 Z " fill="#232322" transform="translate(1951,534)"/>
<path d="M0 0 C9.90012297 8.25593294 14.55963543 19.13969606 16.0625 31.8125 C18.32140537 69.44255776 18.32140537 69.44255776 10.3125 84.875 C9.91417969 85.64328125 9.51585937 86.4115625 9.10546875 87.203125 C3.66233386 96.42665041 -5.02604731 101.77760131 -14.984375 105.18359375 C-29.13865749 108.80398103 -46.46810093 108.39627729 -59.5625 101.5625 C-70.58858674 94.76946302 -76.25242713 86.59860072 -79.92578125 74.18359375 C-81.88368363 65.67926903 -81.8705598 57.31890367 -81.875 48.625 C-81.88724609 47.37847656 -81.89949219 46.13195312 -81.91210938 44.84765625 C-81.93693033 29.01188749 -79.87525214 14.77054871 -68.6875 2.875 C-50.98190134 -13.34910979 -19.27344606 -13.88341453 0 0 Z M-47.125 26.375 C-51.89799134 32.30547425 -50.90866462 39.20901625 -50.92773438 46.44360352 C-50.93742021 48.66916562 -50.96844532 50.89379592 -51 53.11914062 C-51.00653272 54.54426538 -51.01178214 55.96939671 -51.015625 57.39453125 C-51.0249707 58.68464111 -51.03431641 59.97475098 -51.04394531 61.30395508 C-50.53144479 66.43843801 -48.66740344 69.67734024 -45.4375 73.625 C-40.79147207 77.42629558 -36.48536673 78.10197398 -30.625 77.75 C-26.08242076 77.15029682 -23.18611939 75.95711708 -19.6875 72.875 C-14.26753821 65.69721277 -14.47194563 59.94842862 -14.44726562 51.21582031 C-14.43759841 49.1460695 -14.4065806 47.07732879 -14.375 45.0078125 C-14.36984375 43.69039063 -14.3646875 42.37296875 -14.359375 41.015625 C-14.3500293 39.81454102 -14.34068359 38.61345703 -14.33105469 37.37597656 C-14.89454267 31.84144389 -16.49557018 28.06692982 -20.5 24.0625 C-29.30782274 18.01791576 -39.8600953 18.1344726 -47.125 26.375 Z " fill="#232322" transform="translate(1436.6875,364.125)"/>
<path d="M0 0 C9.35625966 8.72604528 12.0058815 20.08328297 12.54911804 32.47027588 C12.62976614 37.00640586 12.60058669 41.54163165 12.5703125 46.078125 C12.56657346 47.74249093 12.56373071 49.40685909 12.56173706 51.07122803 C12.55417062 55.41125776 12.53458385 59.75114954 12.5123291 64.09112549 C12.49171842 68.53599177 12.48270308 72.98088076 12.47265625 77.42578125 C12.45132997 86.11725727 12.41620651 94.80859548 12.375 103.5 C3.135 103.5 -6.105 103.5 -15.625 103.5 C-16.12 100.035 -16.12 100.035 -16.625 96.5 C-17.594375 97.263125 -18.56375 98.02625 -19.5625 98.8125 C-30.33130489 106.50761767 -45.09997803 106.88417807 -57.796875 105.0390625 C-66.37251774 102.97993924 -73.19321713 99.24210915 -78.0625 91.75 C-83.57278735 81.5231509 -84.28949854 68.78232772 -81.375 57.58984375 C-78.96293103 50.86871406 -74.67637917 45.31180333 -68.625 41.5 C-60.21750124 37.6695093 -52.37007744 36.33953396 -43.1640625 36.40234375 C-41.9782106 36.40446617 -41.9782106 36.40446617 -40.7684021 36.40663147 C-38.26222834 36.41219496 -35.75614642 36.42474056 -33.25 36.4375 C-31.54297005 36.44251972 -29.83593868 36.4470818 -28.12890625 36.45117188 C-23.96090252 36.46215241 -19.79296679 36.47939161 -15.625 36.5 C-15.9044721 34.72762781 -16.19581553 32.95712467 -16.4921875 31.1875 C-16.65315918 30.20136719 -16.81413086 29.21523438 -16.97998047 28.19921875 C-17.9054715 24.32630851 -19.37940521 22.75780507 -22.625 20.5 C-31.13536106 16.03524955 -38.79820951 17.21269466 -47.78515625 19.55859375 C-50.3553593 20.41061429 -52.35151096 21.370179 -54.625 22.8125 C-55.615 23.369375 -56.605 23.92625 -57.625 24.5 C-62.49200554 22.79281169 -65.85751496 18.67473164 -69.4375 15.125 C-70.14326172 14.45210937 -70.84902344 13.77921875 -71.57617188 13.0859375 C-72.23810547 12.43109375 -72.90003906 11.77625 -73.58203125 11.1015625 C-74.49432495 10.20945068 -74.49432495 10.20945068 -75.42504883 9.29931641 C-76.625 7.5 -76.625 7.5 -76.44750977 5.39990234 C-74.13623406 0.06112302 -66.83592795 -3.45416686 -61.80078125 -5.8359375 C-59.09844952 -6.86135867 -56.40817851 -7.72234718 -53.625 -8.5 C-52.49578125 -8.83644531 -52.49578125 -8.83644531 -51.34375 -9.1796875 C-34.17107623 -13.47285594 -13.95775487 -11.19866379 0 0 Z M-53.1875 63.625 C-55.21957159 67.68914317 -55.20034367 69.96916859 -54.625 74.5 C-52.17699169 77.94534503 -49.58914467 79.23255238 -45.625 80.5 C-42.82816724 80.71622101 -40.16834637 80.83368265 -37.375 80.8125 C-36.61936768 80.80758545 -35.86373535 80.8026709 -35.08520508 80.79760742 C-28.43468321 80.65805596 -22.37469483 80.3170029 -17.53051758 75.35424805 C-15.18387066 71.83923855 -15.20615136 69.86650392 -15.375 65.6875 C-15.42914062 63.94533203 -15.42914062 63.94533203 -15.484375 62.16796875 C-15.53078125 61.28753906 -15.5771875 60.40710938 -15.625 59.5 C-19.77077275 59.44136106 -23.91643705 59.40619016 -28.0625 59.375 C-29.22716797 59.35824219 -30.39183594 59.34148437 -31.59179688 59.32421875 C-43.09399097 58.99208025 -43.09399097 58.99208025 -53.1875 63.625 Z " fill="#232322" transform="translate(1427.625,586.5)"/>
<path d="M0 0 C9.35625966 8.72604528 12.0058815 20.08328297 12.54911804 32.47027588 C12.62976614 37.00640586 12.60058669 41.54163165 12.5703125 46.078125 C12.56657346 47.74249093 12.56373071 49.40685909 12.56173706 51.07122803 C12.55417062 55.41125776 12.53458385 59.75114954 12.5123291 64.09112549 C12.49171842 68.53599177 12.48270308 72.98088076 12.47265625 77.42578125 C12.45132997 86.11725727 12.41620651 94.80859548 12.375 103.5 C3.135 103.5 -6.105 103.5 -15.625 103.5 C-16.12 100.035 -16.12 100.035 -16.625 96.5 C-17.594375 97.263125 -18.56375 98.02625 -19.5625 98.8125 C-30.33130489 106.50761767 -45.09997803 106.88417807 -57.796875 105.0390625 C-66.37251774 102.97993924 -73.19321713 99.24210915 -78.0625 91.75 C-83.57278735 81.5231509 -84.28949854 68.78232772 -81.375 57.58984375 C-78.96293103 50.86871406 -74.67637917 45.31180333 -68.625 41.5 C-60.21750124 37.6695093 -52.37007744 36.33953396 -43.1640625 36.40234375 C-41.9782106 36.40446617 -41.9782106 36.40446617 -40.7684021 36.40663147 C-38.26222834 36.41219496 -35.75614642 36.42474056 -33.25 36.4375 C-31.54297005 36.44251972 -29.83593868 36.4470818 -28.12890625 36.45117188 C-23.96090252 36.46215241 -19.79296679 36.47939161 -15.625 36.5 C-15.9044721 34.72762781 -16.19581553 32.95712467 -16.4921875 31.1875 C-16.65315918 30.20136719 -16.81413086 29.21523438 -16.97998047 28.19921875 C-17.9054715 24.32630851 -19.37940521 22.75780507 -22.625 20.5 C-31.13536106 16.03524955 -38.79820951 17.21269466 -47.78515625 19.55859375 C-50.3553593 20.41061429 -52.35151096 21.370179 -54.625 22.8125 C-55.615 23.369375 -56.605 23.92625 -57.625 24.5 C-62.49200554 22.79281169 -65.85751496 18.67473164 -69.4375 15.125 C-70.14326172 14.45210938 -70.84902344 13.77921875 -71.57617188 13.0859375 C-72.23810547 12.43109375 -72.90003906 11.77625 -73.58203125 11.1015625 C-74.49432495 10.20945068 -74.49432495 10.20945068 -75.42504883 9.29931641 C-76.625 7.5 -76.625 7.5 -76.44750977 5.39990234 C-74.13623406 0.06112302 -66.83592795 -3.45416686 -61.80078125 -5.8359375 C-59.09844952 -6.86135867 -56.40817851 -7.72234718 -53.625 -8.5 C-52.49578125 -8.83644531 -52.49578125 -8.83644531 -51.34375 -9.1796875 C-34.17107623 -13.47285594 -13.95775487 -11.19866379 0 0 Z M-53.1875 63.625 C-55.21957159 67.68914317 -55.20034367 69.96916859 -54.625 74.5 C-52.17699169 77.94534503 -49.58914467 79.23255238 -45.625 80.5 C-42.82816724 80.71622101 -40.16834637 80.83368265 -37.375 80.8125 C-36.61936768 80.80758545 -35.86373535 80.8026709 -35.08520508 80.79760742 C-28.43468321 80.65805596 -22.37469483 80.3170029 -17.53051758 75.35424805 C-15.18387066 71.83923855 -15.20615136 69.86650392 -15.375 65.6875 C-15.42914062 63.94533203 -15.42914062 63.94533203 -15.484375 62.16796875 C-15.53078125 61.28753906 -15.5771875 60.40710938 -15.625 59.5 C-19.77077275 59.44136106 -23.91643705 59.40619016 -28.0625 59.375 C-29.22716797 59.35824219 -30.39183594 59.34148437 -31.59179688 59.32421875 C-43.09399097 58.99208025 -43.09399097 58.99208025 -53.1875 63.625 Z " fill="#232322" transform="translate(1678.625,365.5)"/>
<path d="M0 0 C-0.86501268 4.41919013 -3.33827237 7.07554885 -6.25 10.375 C-7.21373971 11.48680753 -8.1772824 12.59878588 -9.140625 13.7109375 C-9.61306641 14.25202148 -10.08550781 14.79310547 -10.57226562 15.35058594 C-12.75259898 17.86945259 -14.87570093 20.4337847 -17 23 C-17.67289063 22.72285156 -18.34578125 22.44570313 -19.0390625 22.16015625 C-22.45324974 20.82240743 -25.90243549 19.61245406 -29.375 18.4375 C-30.00921875 18.21642578 -30.6434375 17.99535156 -31.296875 17.76757812 C-41.31936499 14.382431 -51.86670959 13.70362842 -62 17 C-62.99 17.66 -63.98 18.32 -65 19 C-65.25030977 21.58380177 -65.25030977 21.58380177 -65 24 C-60.03767686 26.3519533 -55.55391397 27.5924139 -50.08203125 28.2109375 C-48.56440955 28.40591113 -47.04683281 28.60123493 -45.52929688 28.796875 C-43.17832329 29.08778754 -40.82689321 29.37329872 -38.47436523 29.65136719 C-26.58087869 31.07813501 -13.49680392 32.6742396 -5 42 C1.06992997 52.0336274 2.57786834 62.31012217 0.46875 73.92578125 C-2.15779635 83.33281409 -7.76859411 90.23057968 -15.78125 95.80078125 C-34.10009864 105.70198993 -58.41593442 103.43171865 -77.75 97.93359375 C-85.83341597 95.24798515 -92.8266733 91.55887246 -100 87 C-97.35732275 82.16929964 -93.9335536 78.09795584 -90.4375 73.875 C-89.26835746 72.45669594 -88.10034229 71.03746161 -86.93359375 69.6171875 C-86.41853271 68.99440918 -85.90347168 68.37163086 -85.37280273 67.72998047 C-84.1691003 66.21309706 -83.07414866 64.61122298 -82 63 C-78.11274359 64.15567082 -74.574279 65.67227978 -70.9375 67.4375 C-58.62527405 73.08408395 -45.08468405 75.197463 -32 71 C-29.81284454 70.18810013 -29.81284454 70.18810013 -28 69 C-26.91776634 66.08995097 -26.91776634 66.08995097 -27 63 C-29.04230666 59.6362008 -32.3825494 59.08039038 -36 58 C-38.13740928 57.63652004 -40.28492222 57.32924301 -42.4375 57.0703125 C-44.27634766 56.83634766 -44.27634766 56.83634766 -46.15234375 56.59765625 C-48.68572006 56.28644962 -51.21956839 55.97905789 -53.75390625 55.67578125 C-79.02798239 52.43416356 -79.02798239 52.43416356 -87 44 C-94.20406028 34.62386124 -93.89114981 24.41318955 -93 13 C-92.22787647 9.19984986 -91.06340742 6.27170907 -89 3 C-88.56042969 2.29875 -88.12085938 1.5975 -87.66796875 0.875 C-81.93844201 -6.78370916 -72.00377826 -11.38702763 -62.8125 -13.4375 C-40.50778981 -16.3939417 -18.93791481 -12.44002982 0 0 Z " fill="#232322" transform="translate(2020,369)"/>
<path d="M0 0 C0.66515625 0.53882813 1.3303125 1.07765625 2.015625 1.6328125 C2.61890625 2.08914063 3.2221875 2.54546875 3.84375 3.015625 C13.42783739 11.26139388 18.15397483 25.56418378 20.015625 37.6328125 C20.14453125 38.4578125 20.2734375 39.2828125 20.40625 40.1328125 C21.34574542 47.64877586 21.015625 55.00781153 21.015625 62.6328125 C-1.424375 62.9628125 -23.864375 63.2928125 -46.984375 63.6328125 C-43.58066413 73.19051515 -43.58066413 73.19051515 -36.046875 78.9453125 C-27.09660021 82.54599776 -18.08816713 81.24046625 -9.32421875 77.80078125 C-6.97312174 76.62719526 -5.02661101 75.27886416 -2.984375 73.6328125 C1.00107497 75.26713371 3.86054094 78.03805183 6.953125 80.9453125 C7.46552734 81.41904297 7.97792969 81.89277344 8.50585938 82.38085938 C11.74986449 85.39403312 14.90227626 88.48506211 18.015625 91.6328125 C6.6133368 103.28297653 -8.67809009 108.76990189 -24.796875 109.0703125 C-39.17460646 108.97644265 -53.52956217 104.85529615 -63.984375 94.6328125 C-77.48531185 77.61283446 -77.80088024 55.4876759 -75.51953125 34.72265625 C-73.64340615 21.14421943 -68.48874011 9.39180122 -57.421875 1.0078125 C-41.39543319 -9.82021695 -15.95196835 -11.87790449 0 0 Z M-43.984375 28.6328125 C-47.10633894 33.65025454 -47.19064463 36.28296958 -47.984375 42.6328125 C-34.454375 42.6328125 -20.924375 42.6328125 -6.984375 42.6328125 C-8.7915674 32.6932543 -9.89270509 27.4219622 -17.671875 21.6328125 C-27.84644688 18.56124363 -37.05161261 20.35201298 -43.984375 28.6328125 Z " fill="#232322" transform="translate(2472.984375,583.3671875)"/>
<path d="M0 0 C0.66515625 0.53882813 1.3303125 1.07765625 2.015625 1.6328125 C2.61890625 2.08914063 3.2221875 2.54546875 3.84375 3.015625 C13.42783739 11.26139388 18.15397483 25.56418378 20.015625 37.6328125 C20.14453125 38.4578125 20.2734375 39.2828125 20.40625 40.1328125 C21.34574542 47.64877586 21.015625 55.00781153 21.015625 62.6328125 C-1.424375 62.9628125 -23.864375 63.2928125 -46.984375 63.6328125 C-43.58066413 73.19051515 -43.58066413 73.19051515 -36.046875 78.9453125 C-27.09660021 82.54599776 -18.08816713 81.24046625 -9.32421875 77.80078125 C-6.97312174 76.62719526 -5.02661101 75.27886416 -2.984375 73.6328125 C1.00107497 75.26713371 3.86054094 78.03805183 6.953125 80.9453125 C7.46552734 81.41904297 7.97792969 81.89277344 8.50585938 82.38085938 C11.74986449 85.39403312 14.90227626 88.48506211 18.015625 91.6328125 C6.6133368 103.28297653 -8.67809009 108.76990189 -24.796875 109.0703125 C-39.17460646 108.97644265 -53.52956217 104.85529615 -63.984375 94.6328125 C-77.48531185 77.61283446 -77.80088024 55.4876759 -75.51953125 34.72265625 C-73.64340615 21.14421943 -68.48874011 9.39180122 -57.421875 1.0078125 C-41.39543319 -9.82021695 -15.95196835 -11.87790449 0 0 Z M-43.984375 28.6328125 C-47.10633894 33.65025454 -47.19064463 36.28296958 -47.984375 42.6328125 C-34.454375 42.6328125 -20.924375 42.6328125 -6.984375 42.6328125 C-8.7915674 32.6932543 -9.89270509 27.4219622 -17.671875 21.6328125 C-27.84644688 18.56124363 -37.05161261 20.35201298 -43.984375 28.6328125 Z " fill="#232322" transform="translate(1781.984375,583.3671875)"/>
<path d="M0 0 C0.66515625 0.53882813 1.3303125 1.07765625 2.015625 1.6328125 C2.61890625 2.08914063 3.2221875 2.54546875 3.84375 3.015625 C13.42783739 11.26139388 18.15397483 25.56418378 20.015625 37.6328125 C20.14453125 38.4578125 20.2734375 39.2828125 20.40625 40.1328125 C21.34574542 47.64877586 21.015625 55.00781153 21.015625 62.6328125 C-1.424375 62.9628125 -23.864375 63.2928125 -46.984375 63.6328125 C-43.58066413 73.19051515 -43.58066413 73.19051515 -36.046875 78.9453125 C-27.09660021 82.54599776 -18.08816713 81.24046625 -9.32421875 77.80078125 C-6.97312174 76.62719526 -5.02661101 75.27886416 -2.984375 73.6328125 C1.00107497 75.26713371 3.86054094 78.03805183 6.953125 80.9453125 C7.46552734 81.41904297 7.97792969 81.89277344 8.50585938 82.38085938 C11.74986449 85.39403312 14.90227626 88.48506211 18.015625 91.6328125 C6.6133368 103.28297653 -8.67809009 108.76990189 -24.796875 109.0703125 C-39.17460646 108.97644265 -53.52956217 104.85529615 -63.984375 94.6328125 C-77.48531185 77.61283446 -77.80088024 55.4876759 -75.51953125 34.72265625 C-73.64340615 21.14421943 -68.48874011 9.39180122 -57.421875 1.0078125 C-41.39543319 -9.82021695 -15.95196835 -11.87790449 0 0 Z M-43.984375 28.6328125 C-47.10633894 33.65025454 -47.19064463 36.28296958 -47.984375 42.6328125 C-34.454375 42.6328125 -20.924375 42.6328125 -6.984375 42.6328125 C-8.7915674 32.6932543 -9.89270509 27.4219622 -17.671875 21.6328125 C-27.84644688 18.56124363 -37.05161261 20.35201298 -43.984375 28.6328125 Z " fill="#232322" transform="translate(1312.984375,362.3671875)"/>
<path d="M0 0 C9.9 0 19.8 0 30 0 C30.01458252 2.17996582 30.02916504 4.35993164 30.04418945 6.60595703 C30.09458638 13.818507 30.16119044 21.03084223 30.23571491 28.24318123 C30.28039182 32.61490145 30.31965377 36.98652906 30.34643555 41.35839844 C30.37249539 45.57960838 30.41291653 49.80046143 30.46318626 54.02145004 C30.4798369 55.62969388 30.49136241 57.23799942 30.49761391 58.84631729 C30.5072749 61.10381499 30.53535629 63.36040335 30.56762695 65.61767578 C30.57873001 66.90118927 30.58983307 68.18470276 30.60127258 69.5071106 C31.1095265 73.95946236 32.63793135 77.18390846 35.3125 80.75 C39.75297154 84.03923818 44.63807649 84.46223479 50 84 C54.5814199 82.97713139 57.323879 81.78013961 60.4375 78.1875 C63.0177798 72.92372922 63.13102154 67.78032 63.20532227 61.98486328 C63.21522186 61.31099075 63.22512146 60.63711823 63.23532104 59.94282532 C63.26668184 57.73535568 63.29159184 55.52786459 63.31640625 53.3203125 C63.33699779 51.78188547 63.35799482 50.24346382 63.37937927 48.70504761 C63.43437285 44.67082088 63.48388155 40.63654503 63.53222656 36.60223389 C63.59147812 31.75376047 63.65758019 26.90537615 63.72252655 22.05697632 C63.82024998 14.70470564 63.9093014 7.35237581 64 0 C73.9 0 83.8 0 94 0 C94 36.96 94 73.92 94 112 C84.1 112 74.2 112 64 112 C63.67 108.04 63.34 104.08 63 100 C61.845 101.4025 60.69 102.805 59.5 104.25 C54.88179434 109.46701385 50.60626813 111.79791062 44 114 C31.97603799 114.71610854 21.62999913 113.77212149 12 106 C6.59212163 100.07883148 2.78866283 93.83463883 1 86 C0.82759293 85.29736526 0.65518585 84.59473053 0.47755432 83.87080383 C-0.12709522 80.2359708 -0.13138129 76.669215 -0.11352539 72.99682617 C-0.11367142 72.20605682 -0.11381744 71.41528748 -0.1139679 70.60055542 C-0.11327362 67.99799821 -0.105504 65.39551339 -0.09765625 62.79296875 C-0.09579035 60.98407531 -0.09436726 59.17518136 -0.09336853 57.36628723 C-0.08955694 52.61356197 -0.07973825 47.86086744 -0.06866455 43.1081543 C-0.05842123 38.2550498 -0.05386465 33.40194032 -0.04882812 28.54882812 C-0.03811475 19.03253643 -0.02052895 9.51627558 0 0 Z " fill="#232322" transform="translate(2068,578)"/>
<path d="M0 0 C9.78542478 7.82833983 15.0555811 16.62819397 16.8125 29.25 C17.08710744 35.37737488 17.04572715 41.49671523 17.0078125 47.62890625 C17.00407697 49.40966126 17.00123255 51.19041834 16.99923706 52.97117615 C16.99164307 57.63182363 16.97203147 62.29234417 16.9498291 66.95294189 C16.92927892 71.71926151 16.92021582 76.48560187 16.91015625 81.25195312 C16.88878114 90.58469983 16.85363404 99.91731944 16.8125 109.25 C6.9125 109.25 -2.9875 109.25 -13.1875 109.25 C-13.20208252 107.07003418 -13.21666504 104.89006836 -13.23168945 102.64404297 C-13.28208638 95.431493 -13.34869044 88.21915777 -13.42321491 81.00681877 C-13.46789182 76.63509855 -13.50715377 72.26347094 -13.53393555 67.89160156 C-13.55999539 63.67039162 -13.60041653 59.44953857 -13.65068626 55.22854996 C-13.6673369 53.62030612 -13.67886241 52.01200058 -13.68511391 50.40368271 C-13.6947749 48.14618501 -13.72285629 45.88959665 -13.75512695 43.63232422 C-13.77178154 41.70705399 -13.77178154 41.70705399 -13.78877258 39.7428894 C-14.22526858 35.91914375 -15.17334001 33.51232138 -17.1875 30.25 C-22.87037349 25.77624853 -27.02281792 24.76425884 -34.1875 25.25 C-39.35830005 26.9151729 -42.21648102 28.67920157 -45.1875 33.25 C-46.35804735 36.76164205 -46.34816226 39.58496784 -46.39282227 43.29174805 C-46.40767166 44.36042114 -46.40767166 44.36042114 -46.42282104 45.45068359 C-46.454395 47.80432824 -46.47917719 50.15799306 -46.50390625 52.51171875 C-46.52447933 54.14411441 -46.54547589 55.77650479 -46.56687927 57.40888977 C-46.62206344 61.70455646 -46.67148883 66.00027094 -46.71972656 70.29602051 C-46.76996827 74.67981212 -46.8256404 79.06353438 -46.88085938 83.44726562 C-46.98839627 92.04812002 -47.08934931 100.64903336 -47.1875 109.25 C-57.0875 109.25 -66.9875 109.25 -77.1875 109.25 C-77.1875 72.29 -77.1875 35.33 -77.1875 -2.75 C-67.2875 -2.75 -57.3875 -2.75 -47.1875 -2.75 C-46.8575 0.88 -46.5275 4.51 -46.1875 8.25 C-45.383125 7.198125 -44.57875 6.14625 -43.75 5.0625 C-32.87072074 -7.64717932 -13.91084523 -7.63732679 0 0 Z " fill="#232322" transform="translate(1905.1875,580.75)"/>
<path d="M0 0 C9.78542478 7.82833983 15.0555811 16.62819397 16.8125 29.25 C17.08710744 35.37737488 17.04572715 41.49671523 17.0078125 47.62890625 C17.00407697 49.40966126 17.00123255 51.19041834 16.99923706 52.97117615 C16.99164307 57.63182363 16.97203147 62.29234417 16.9498291 66.95294189 C16.92927892 71.71926151 16.92021582 76.48560187 16.91015625 81.25195312 C16.88878114 90.58469983 16.85363404 99.91731944 16.8125 109.25 C6.9125 109.25 -2.9875 109.25 -13.1875 109.25 C-13.20208252 107.07003418 -13.21666504 104.89006836 -13.23168945 102.64404297 C-13.28208638 95.431493 -13.34869044 88.21915777 -13.42321491 81.00681877 C-13.46789182 76.63509855 -13.50715377 72.26347094 -13.53393555 67.89160156 C-13.55999539 63.67039162 -13.60041653 59.44953857 -13.65068626 55.22854996 C-13.6673369 53.62030612 -13.67886241 52.01200058 -13.68511391 50.40368271 C-13.6947749 48.14618501 -13.72285629 45.88959665 -13.75512695 43.63232422 C-13.77178154 41.70705399 -13.77178154 41.70705399 -13.78877258 39.7428894 C-14.22526858 35.91914375 -15.17334001 33.51232138 -17.1875 30.25 C-22.87037349 25.77624853 -27.02281792 24.76425884 -34.1875 25.25 C-39.35830005 26.9151729 -42.21648102 28.67920157 -45.1875 33.25 C-46.35804735 36.76164205 -46.34816226 39.58496784 -46.39282227 43.29174805 C-46.40767166 44.36042114 -46.40767166 44.36042114 -46.42282104 45.45068359 C-46.454395 47.80432824 -46.47917719 50.15799306 -46.50390625 52.51171875 C-46.52447933 54.14411441 -46.54547589 55.77650479 -46.56687927 57.40888977 C-46.62206344 61.70455646 -46.67148883 66.00027094 -46.71972656 70.29602051 C-46.76996827 74.67981212 -46.8256404 79.06353438 -46.88085938 83.44726562 C-46.98839627 92.04812002 -47.08934931 100.64903336 -47.1875 109.25 C-57.0875 109.25 -66.9875 109.25 -77.1875 109.25 C-77.1875 72.29 -77.1875 35.33 -77.1875 -2.75 C-67.2875 -2.75 -57.3875 -2.75 -47.1875 -2.75 C-46.8575 0.88 -46.5275 4.51 -46.1875 8.25 C-45.383125 7.198125 -44.57875 6.14625 -43.75 5.0625 C-32.87072074 -7.64717932 -13.91084523 -7.63732679 0 0 Z " fill="#232322" transform="translate(1545.1875,580.75)"/>
<path d="M0 0 C9.78542478 7.82833983 15.0555811 16.62819397 16.8125 29.25 C17.08710744 35.37737488 17.04572715 41.49671523 17.0078125 47.62890625 C17.00407697 49.40966126 17.00123255 51.19041834 16.99923706 52.97117615 C16.99164307 57.63182363 16.97203147 62.29234417 16.9498291 66.95294189 C16.92927892 71.71926151 16.92021582 76.48560187 16.91015625 81.25195312 C16.88878114 90.58469983 16.85363404 99.91731944 16.8125 109.25 C6.9125 109.25 -2.9875 109.25 -13.1875 109.25 C-13.20208252 107.07003418 -13.21666504 104.89006836 -13.23168945 102.64404297 C-13.28208638 95.431493 -13.34869044 88.21915777 -13.42321491 81.00681877 C-13.46789182 76.63509855 -13.50715377 72.26347094 -13.53393555 67.89160156 C-13.55999539 63.67039162 -13.60041653 59.44953857 -13.65068626 55.22854996 C-13.6673369 53.62030612 -13.67886241 52.01200058 -13.68511391 50.40368271 C-13.6947749 48.14618501 -13.72285629 45.88959665 -13.75512695 43.63232422 C-13.77178154 41.70705399 -13.77178154 41.70705399 -13.78877258 39.7428894 C-14.22526858 35.91914375 -15.17334001 33.51232138 -17.1875 30.25 C-22.87037349 25.77624853 -27.02281792 24.76425884 -34.1875 25.25 C-39.35830005 26.9151729 -42.21648102 28.67920157 -45.1875 33.25 C-46.35804735 36.76164205 -46.34816226 39.58496784 -46.39282227 43.29174805 C-46.40767166 44.36042114 -46.40767166 44.36042114 -46.42282104 45.45068359 C-46.454395 47.80432824 -46.47917719 50.15799306 -46.50390625 52.51171875 C-46.52447933 54.14411441 -46.54547589 55.77650479 -46.56687927 57.40888977 C-46.62206344 61.70455646 -46.67148883 66.00027094 -46.71972656 70.29602051 C-46.76996827 74.67981212 -46.8256404 79.06353438 -46.88085938 83.44726562 C-46.98839627 92.04812002 -47.08934931 100.64903336 -47.1875 109.25 C-57.0875 109.25 -66.9875 109.25 -77.1875 109.25 C-77.1875 72.29 -77.1875 35.33 -77.1875 -2.75 C-67.2875 -2.75 -57.3875 -2.75 -47.1875 -2.75 C-46.8575 0.88 -46.5275 4.51 -46.1875 8.25 C-45.383125 7.198125 -44.57875 6.14625 -43.75 5.0625 C-32.87072074 -7.64717932 -13.91084523 -7.63732679 0 0 Z " fill="#232322" transform="translate(1556.1875,359.75)"/>
<path d="M0 0 C9.9 0 19.8 0 30 0 C30 41.91 30 83.82 30 127 C54.75 127 79.5 127 105 127 C105 136.57 105 146.14 105 156 C70.35 156 35.7 156 0 156 C0 104.52 0 53.04 0 0 Z " fill="#232322" transform="translate(1117,313)"/>
<path d="M0 0 C3.1875 2.25 3.1875 2.25 5 4 C4.38273663 7.2144281 3.28638786 9.3195168 1.3828125 11.96875 C0.85816406 12.70480469 0.33351563 13.44085937 -0.20703125 14.19921875 C-0.75746094 14.95847656 -1.30789062 15.71773437 -1.875 16.5 C-2.68904297 17.63888672 -2.68904297 17.63888672 -3.51953125 18.80078125 C-5.97557884 22.22963987 -8.46211706 25.63117869 -11 29 C-13.36246082 28.45481673 -15.53767339 27.79687894 -17.8125 26.9375 C-24.3261128 25.02173153 -29.03532694 25.84885197 -35 29 C-39.13026129 32.09769596 -40.82560954 36.08126308 -42 41 C-42.46906467 46.28938978 -42.48971868 51.56951729 -42.51171875 56.875 C-42.52858634 58.41057757 -42.54673935 59.9461415 -42.56611633 61.48168945 C-42.61339709 65.49944803 -42.64334755 69.51715131 -42.66955566 73.53509521 C-42.70474378 78.36867353 -42.76169346 83.20203963 -42.81494904 88.03544617 C-42.89320566 95.35693627 -42.94400487 102.67815349 -43 110 C-53.56 110 -64.12 110 -75 110 C-75 73.04 -75 36.08 -75 -2 C-64.44 -2 -53.88 -2 -43 -2 C-42.505 3.445 -42.505 3.445 -42 9 C-40.824375 7.7625 -39.64875 6.525 -38.4375 5.25 C-27.45437826 -5.73312174 -13.86511563 -6.79482488 0 0 Z " fill="#232322" transform="translate(2594,580)"/>
<path d="M0 0 C3.1875 2.25 3.1875 2.25 5 4 C4.38273663 7.2144281 3.28638786 9.3195168 1.3828125 11.96875 C0.85816406 12.70480469 0.33351563 13.44085937 -0.20703125 14.19921875 C-0.75746094 14.95847656 -1.30789062 15.71773437 -1.875 16.5 C-2.68904297 17.63888672 -2.68904297 17.63888672 -3.51953125 18.80078125 C-5.97557884 22.22963987 -8.46211706 25.63117869 -11 29 C-13.36246082 28.45481673 -15.53767339 27.79687894 -17.8125 26.9375 C-24.3261128 25.02173153 -29.03532694 25.84885197 -35 29 C-39.13026129 32.09769596 -40.82560954 36.08126308 -42 41 C-42.46906467 46.28938978 -42.48971868 51.56951729 -42.51171875 56.875 C-42.52858634 58.41057757 -42.54673935 59.9461415 -42.56611633 61.48168945 C-42.61339709 65.49944803 -42.64334755 69.51715131 -42.66955566 73.53509521 C-42.70474378 78.36867353 -42.76169346 83.20203963 -42.81494904 88.03544617 C-42.89320566 95.35693627 -42.94400487 102.67815349 -43 110 C-53.56 110 -64.12 110 -75 110 C-75 73.04 -75 36.08 -75 -2 C-64.44 -2 -53.88 -2 -43 -2 C-42.505 3.445 -42.505 3.445 -42 9 C-40.824375 7.7625 -39.64875 6.525 -38.4375 5.25 C-27.45437826 -5.73312174 -13.86511563 -6.79482488 0 0 Z " fill="#232322" transform="translate(2265,580)"/>
<path d="M0 0 C3.1875 2.25 3.1875 2.25 5 4 C4.38273663 7.2144281 3.28638786 9.3195168 1.3828125 11.96875 C0.85816406 12.70480469 0.33351563 13.44085937 -0.20703125 14.19921875 C-0.75746094 14.95847656 -1.30789063 15.71773437 -1.875 16.5 C-2.68904297 17.63888672 -2.68904297 17.63888672 -3.51953125 18.80078125 C-5.97557884 22.22963987 -8.46211706 25.63117869 -11 29 C-13.36246082 28.45481673 -15.53767339 27.79687894 -17.8125 26.9375 C-24.3261128 25.02173153 -29.03532694 25.84885197 -35 29 C-39.13026129 32.09769596 -40.82560954 36.08126308 -42 41 C-42.46906467 46.28938978 -42.48971868 51.56951729 -42.51171875 56.875 C-42.52858634 58.41057757 -42.54673935 59.9461415 -42.56611633 61.48168945 C-42.61339709 65.49944803 -42.64334755 69.51715131 -42.66955566 73.53509521 C-42.70474378 78.36867353 -42.76169346 83.20203963 -42.81494904 88.03544617 C-42.89320566 95.35693627 -42.94400487 102.67815349 -43 110 C-53.56 110 -64.12 110 -75 110 C-75 73.04 -75 36.08 -75 -2 C-64.44 -2 -53.88 -2 -43 -2 C-42.505 3.445 -42.505 3.445 -42 9 C-40.824375 7.7625 -39.64875 6.525 -38.4375 5.25 C-27.45437826 -5.73312174 -13.86511563 -6.79482488 0 0 Z " fill="#232322" transform="translate(1332,580)"/>
<path d="M0 0 C3.1875 2.25 3.1875 2.25 5 4 C4.38273663 7.2144281 3.28638786 9.3195168 1.3828125 11.96875 C0.85816406 12.70480469 0.33351563 13.44085938 -0.20703125 14.19921875 C-0.75746094 14.95847656 -1.30789063 15.71773438 -1.875 16.5 C-2.68904297 17.63888672 -2.68904297 17.63888672 -3.51953125 18.80078125 C-5.97557884 22.22963987 -8.46211706 25.63117869 -11 29 C-13.36246082 28.45481673 -15.53767339 27.79687894 -17.8125 26.9375 C-24.3261128 25.02173153 -29.03532694 25.84885197 -35 29 C-39.13026129 32.09769596 -40.82560954 36.08126308 -42 41 C-42.46906467 46.28938978 -42.48971868 51.56951729 -42.51171875 56.875 C-42.52858634 58.41057757 -42.54673935 59.9461415 -42.56611633 61.48168945 C-42.61339709 65.49944803 -42.64334755 69.51715131 -42.66955566 73.53509521 C-42.70474378 78.36867353 -42.76169346 83.20203963 -42.81494904 88.03544617 C-42.89320566 95.35693627 -42.94400487 102.67815349 -43 110 C-53.56 110 -64.12 110 -75 110 C-75 73.04 -75 36.08 -75 -2 C-64.44 -2 -53.88 -2 -43 -2 C-42.505 3.445 -42.505 3.445 -42 9 C-40.824375 7.7625 -39.64875 6.525 -38.4375 5.25 C-27.45437826 -5.73312174 -13.86511563 -6.79482488 0 0 Z " fill="#232322" transform="translate(1794,359)"/>
</svg>
